<?xml version="1.0" encoding="utf-8"?>
<!-- Generator: Adobe Illustrator 18.1.0, SVG Export Plug-In . SVG Version: 6.00 Build 0)  -->
<svg version="1.1" id="Calque_1" xmlns="http://www.w3.org/2000/svg" xmlns:xlink="http://www.w3.org/1999/xlink" x="0px" y="0px"
	 viewBox="0 0 100 100" enable-background="new 0 0 100 100" xml:space="preserve">
<g>
	<path fill="#C23A26" d="M51.9,84.5L51.9,84.5C51.9,84.6,51.9,84.6,51.9,84.5C51.9,84.6,51.9,84.6,51.9,84.5L51.9,84.5z"/>
	<path fill="#2C4050" d="M46.7,90.2c0,0.6-0.5,1.1-0.6,1.8c-1.1,2.4-2.2,4.8-3.3,7.2c-2.8-0.2-5.5-1-8.2-1.8
		c-3.6-1.1-7-2.7-10.3-4.7c-0.4-0.2-0.8-0.6-1.2-0.8c0.1-0.2,0.3-0.4,0.4-0.6c1-2.2,1.9-4.4,3-6.6c0.5-1,0.6-2.1,1.6-2.8
		c1.7,0.8,3.5,1.5,5.2,2.3c3.6,1.6,7.1,3.2,10.7,4.8c0.7,0.4,1.4,0.7,2.1,0.9C46.2,90,46.5,90.1,46.7,90.2z"/>
	<path fill="#34495E" d="M28.1,81.9c-1,0.7-1.1,1.8-1.6,2.8c-1,2.2-2,4.4-3,6.6c-0.1,0.2-0.3,0.4-0.4,0.6c-6-3.8-10.8-8.6-14.7-14.5
		c0.4-0.9,0.9-1.7,1.2-2.6c0.3-0.8,0.7-1,1.4-0.6c0.2,0.1,0.4,0.1,0.5,0.2c4.8,2.2,9.7,4.4,14.5,6.6c0.6,0.3,1.2,0.7,1.9,0.7
		C28,81.7,28,81.8,28.1,81.9z"/>
	<path fill="#BC9D70" d="M84.7,31.6c-3.8,1-7.6,2.1-11.3,3.1c-0.2,0.1-0.4,0.1-0.7,0.2c-0.9-2.9-2.2-5.6-4-7.9
		c2.8-0.8,5.5-1.6,8.3-2.3c1.9-0.5,3.8-1,5.7-1.5c2.1-0.5,4.1,0.3,5.1,2.2c0.9,1.8,0.5,4-1.1,5.3C86,31,85.3,31.3,84.7,31.6z"/>
	<path fill="#EAEEEF" d="M28,81.7c-0.7-0.1-1.3-0.5-1.9-0.7c-4.8-2.2-9.7-4.4-14.5-6.6c0.8-1.8,1.6-3.6,2.4-5.4
		c0.6,0.3,1.3,0.5,1.9,0.8c0.2,0.2,0.5,0.4,0.8,0.4c0.7,0.3,1.3,0.8,2.1,0.8c0,0.3,0.3,0.4,0.5,0.5c0.9,0.4,1.8,0.8,2.6,1.2
		c2.7,1.3,5.6,2.4,8.2,3.8c-0.6,1.4-1.3,2.7-1.9,4.1C28.2,80.9,27.9,81.2,28,81.7z"/>
	<path fill="#34495E" d="M63.3,19.6c0,0.3-0.2,0.6-0.4,0.8c-1.4-0.7-2.9-1.3-4.3-2c0-0.3,0.1-0.5,0.3-0.8c0.1-0.1,0.4-0.1,0.4-0.2
		c0.8-1.5,1.5-3,2.1-4.6c0.1-0.4-0.2-0.6-0.5-0.7c-0.3-0.2-0.5,0.1-0.6,0.3c-0.6,1.5-1.5,2.9-1.9,4.5c-0.3-0.1-0.5-0.3-0.6-0.6
		c0.7-1.5,1.4-3,2.2-4.5c0.2-0.5,0-0.8-0.4-1.1c0-0.1,0-0.2,0.1-0.4c0-0.1,0.1-0.1,0.1-0.2c0.6-0.3,1.2-0.3,1.8-0.1
		c2,0.4,3.8,1.2,5.4,2.4c0.5,0.4,1.1,0.8,1.2,1.6c-0.1,0.1-0.2,0.3-0.2,0.4c-0.6-0.1-0.9,0.3-1.2,0.8c-0.6,1.5-1.3,2.9-1.9,4.4
		c-0.2,0.1-0.4,0.1-0.6,0c0.6-1.4,1.2-2.8,1.8-4.2c0.1-0.3,0.5-0.6,0-0.9c-0.5-0.3-0.8-0.1-1,0.4c-0.5,1.2-1.1,2.5-1.7,3.7
		C63.3,19,63.1,19.3,63.3,19.6z M62.2,19.1c0.2,0,0.4-0.1,0.5-0.3c0.6-1.4,1.3-2.8,1.9-4.2c0.1-0.3-0.1-0.5-0.3-0.6
		c-0.3-0.1-0.5-0.1-0.7,0.2c-0.7,1.4-1.3,2.8-1.9,4.2C61.5,18.8,61.8,19,62.2,19.1z M63,13.8c0-0.3-0.2-0.4-0.4-0.5
		c-0.3-0.1-0.6,0-0.7,0.3c-0.6,1.3-1.2,2.6-1.7,3.9c-0.2,0.4-0.1,0.7,0.3,0.9c0.4,0.2,0.6-0.1,0.7-0.4c0.5-1.1,1-2.2,1.5-3.3
		C62.8,14.3,62.9,14,63,13.8z"/>
	<path fill="#E3BE88" d="M30.3,76.4c-2.7-1.4-5.5-2.5-8.2-3.8c-0.9-0.4-1.8-0.8-2.6-1.2c-0.2-0.1-0.5-0.2-0.5-0.5
		c1-2.3,2-4.6,3.1-6.9c0.3-0.6,0.4-1.1,0.1-1.7c-1.8-4.6-3.5-9.2-5.2-13.7c-0.2-0.6-0.2-1.1,0-1.7c2.1-4.6,4.2-9.2,6.2-13.7
		c0.1-0.2,0.2-0.4,0.4-0.6c0.2,0.1,0.3,0.2,0.5,0.3c1.4,1,3,1,4.3,0c1.2-0.9,1.7-2.4,1.2-3.9c-0.4-1.5-1.6-2.4-3.3-2.6
		c0.2-0.4,0.4-0.9,0.6-1.3c0.6-1.3,0.6-1.3,1.9-0.6c1.8,1.1,3.1,2.6,3.9,4.5c0,0.3,0,0.5,0.2,0.8c0.4,2.4,0.1,4.7-0.7,7
		c-0.8,2.4-2.1,4.6-3.5,6.7c-0.8,0.3-1.2,1-1.8,1.6c-0.2,0.2-0.2,0.4,0.1,0.5c0.7,0.4,1.3,1,2.2,1.2c0.1,0.2,0.2,0.4,0.2,0.6
		c0.8,3.2,2.3,6.2,4.4,8.8c1.6,2,3.5,3.5,5.6,4.9c0,1.1,0,2.3,0,3.4c0,0.4,0.2,0.9,0.7,0.6c1-0.6,2.1-1.2,3-2.1
		c0.9,0.3,1.9,0.5,2.8,0.8c2.9,0.7,5.8,0.7,8.7,0.4c0.3,0.8,1.1,1,1.7,1.3c3,1.6,6.2,1.9,9.4,1.8c-2.4,3-5.6,4.8-9.2,6
		c-3,1-6.2,1.5-9.4,1.7c-0.5,0-0.8,0.1-1,0.6c-0.9,2.2-1.9,4.3-2.9,6.5c-2.3-1-4.6-2.1-7-3.1C34,78,32.3,76.9,30.3,76.4z"/>
	<path fill="#E3BE88" d="M76.1,45c2.3-0.3,4.4,1.2,4.8,3.6c0.4,2.1-1,4.4-3.2,4.9c-1.6,0.4-3.3,0.7-4.9,1.1c0.2,0.3,0.4,0.3,0.7,0.3
		c1.7,0.5,2.8,1.9,2.8,3.7c0,1.7-1.1,3.3-2.8,3.7c-1.9,0.5-3.8,0.9-5.8,1.3c-2.4-0.1-3.5-1.1-4.1-3.6c0-1.7,0.8-3,2.3-3.9
		c-0.9,0-1.6-0.3-2.3-0.5c-0.1-0.1-0.2-0.2-0.3-0.3c-2.3-1.5-2.5-4.9-0.7-6.7c0.5-0.3,1.1-0.7,1.6-1c0.4-0.1,0.8-0.2,1.2-0.3
		C65.2,46.9,65,47,64.8,47c-2.5-0.7-3.9-3-3.6-5.6c0.2-1.1,1-1.9,1.4-2.9l0,0c0.2,0,0.3,0,0.4-0.2c0.8-0.5,1.6-0.7,2.5-1
		c0.2,0,0.4,0,0.6-0.2l0,0c0.8,0,1.6-0.2,2.4-0.6c1.1-0.1,2.2-0.4,3.3-0.8c0.4-0.1,0.9-0.2,1.3-0.3c1.4-0.3,2.8-0.7,4.1-1
		c2.7-0.6,5.3,0.9,5.9,3.5c0.7,2.7-0.8,5.2-3.6,5.9c-1.1,0.3-2.1,0.5-3.2,0.8s-2.2,0.5-3.2,0.8C74,45.5,75,45.2,76.1,45z M66.3,39.2
		c-1.5,0-2.7,1.2-2.7,2.7c0,1.4,1.3,2.7,2.7,2.7s2.7-1.3,2.7-2.7C69,40.3,67.9,39.2,66.3,39.2z M66,49.9c-1.2,0-2.2,1-2.2,2.2
		s0.9,2.2,2.1,2.2c1.2,0,2.3-1,2.3-2.3C68.3,50.9,67.3,49.9,66,49.9z M67.5,61.5c1,0,1.8-0.8,1.8-1.7c0-1-0.9-1.9-1.8-1.9
		c-1,0-1.8,0.8-1.8,1.9C65.6,60.8,66.5,61.5,67.5,61.5z"/>
	<path fill="#BCC2C6" d="M30.3,76.4c2,0.5,3.8,1.6,5.7,2.4c2.3,1,4.7,2.1,7,3.1c1,0.5,2,0.9,3,1.4c0.4,0.2,0.5,0.4,0.3,0.8
		c-0.8,1.6-1.5,3.2-2.3,4.9c-3.6-1.6-7.1-3.2-10.7-4.8c-1.7-0.8-3.5-1.5-5.2-2.3c0-0.1,0-0.1,0-0.2c-0.1-0.4,0.1-0.8,0.3-1.2
		C29,79.1,29.6,77.8,30.3,76.4z"/>
	<path fill="#BC9D70" d="M63.5,60.1c0.6,2.5,1.7,3.5,4.1,3.6c-0.6,1.2-1.2,2.5-2.3,3.5c-3.3,0.1-6.5-0.3-9.4-1.8
		c-0.6-0.3-1.4-0.5-1.7-1.3c0.1,0,0.2-0.1,0.2-0.1C57.7,63.3,60.7,62,63.5,60.1z"/>
	<path fill="#34495E" d="M72.8,35.5c-0.4,0.1-0.9,0.2-1.3,0.3c-0.3-1.8-1.2-3.4-2.1-4.9c-1.9-3-4.3-5.5-7.4-7.3
		c-0.5-0.3-0.9-0.6-0.1-1c0.3-0.2,0.5-0.6,0.7-0.9c2.3,1.4,4.3,3.2,6.1,5.3c1.8,2.4,3.1,5.1,4,7.9C72.7,35,72.8,35.2,72.8,35.5z"/>
	<path fill="#BC9D70" d="M76.1,45c-1,0.2-2.1,0.6-3.2,0.4c1.1-0.3,2.2-0.5,3.2-0.8C76.1,44.8,76.1,44.9,76.1,45z"/>
	<path fill="#C23A26" d="M52,84.4C52,84.4,52.1,84.5,52,84.4c0,0.1,0,0.2,0,0.2C51.9,84.7,51.9,84.6,52,84.4L52,84.4z"/>
	<path fill="#2C4050" d="M62.6,21.6c-0.2,0.4-0.3,0.8-0.7,0.9c-0.8,0.4-0.4,0.7,0.1,1c3.1,1.8,5.5,4.3,7.4,7.3
		c0.9,1.5,1.8,3.1,2.1,4.9c-1.1,0.4-2.1,0.7-3.3,0.8c-2.2-7.1-8.9-12.4-16.4-12.8c-12-0.7-21.5,9.8-19.5,21.7
		c1.3,7.2,5.5,12.2,12.5,14.5c6.9,2.3,13.2,0.7,18.6-4.2c0.8,0.1,1.5,0.5,2.3,0.5c-1.5,0.9-2.3,2.2-2.3,3.9c-2.7,1.9-5.7,3.2-9,3.8
		c-0.1,0-0.2,0.1-0.2,0.1c-2.9,0.3-5.8,0.3-8.7-0.4c-0.9-0.2-1.9-0.5-2.8-0.8c-1.2-0.6-2.4-1.2-3.6-1.8c-2.1-1.4-4-3-5.6-4.9
		c-2.1-2.6-3.5-5.5-4.4-8.8c-0.1-0.2-0.1-0.4-0.2-0.6c-0.1-1.1-0.3-2.2-0.4-3.3c1.5-2.1,2.7-4.3,3.5-6.7c0.8-2.3,1.1-4.6,0.7-7
		c0-0.6,0.3-1,0.7-1.4c1.7-2.1,3.8-3.9,6.1-5.2c1.1-0.6,1.1-0.6,0.1-1.3c0-0.6,0-1.2-0.8-1.2c0-0.7-0.4-1.3-0.6-1.9
		c-0.1-0.2-0.2-0.5,0-0.6c0.4-0.1,0.4,0.2,0.5,0.5c0.3,0.6,0.4,1.2,0.9,1.7c-0.1-0.6-0.3-1.1-0.5-1.6c-0.1-0.2-0.4-0.6,0-0.7
		c0.3-0.1,0.4,0.3,0.5,0.6c0.3,0.5,0.3,1.2,0.8,1.6c-0.1-0.5-0.3-1-0.4-1.5c-0.1-0.3-0.4-0.7,0-0.8c0.4-0.1,0.4,0.4,0.5,0.6
		c0.2,0.5,0.4,0.9,0.6,1.4c0.2-0.7-0.2-1.2-0.4-1.8c0-0.2-0.2-0.5,0.1-0.6c0.2-0.1,0.3,0.2,0.4,0.4c0.2,0.6,0.6,1.2,0.6,1.9
		c-0.2,0.3,0,0.6,0.2,0.9c0,0.2,0.1,0.3,0.1,0.5c-0.1,0.9,0.3,0.9,0.9,0.6c0.1-0.1,0.3-0.1,0.5-0.2c3.3-1.2,6.8-1.4,10.3-1
		c1.4,0.2,2.8,0.7,4.4,1c-0.4-0.8-0.3-1.4,0-2c0.2-0.4,0.4-0.7,0.6-1.1c1.4,0.7,2.9,1.3,4.3,2C62.8,20.8,62.7,21.2,62.6,21.6z
		 M41.5,22.1C41.4,22.1,41.4,22.1,41.5,22.1c-0.1,0-0.1,0-0.1,0.1C41.4,22.2,41.4,22.2,41.5,22.1C41.5,22.2,41.5,22.1,41.5,22.1z"/>
	<path fill="#EAEEEF" d="M26.3,26.4c1.7,0.1,2.9,1,3.3,2.6c0.4,1.5-0.1,3-1.2,3.9c-1.3,1-2.9,1-4.3,0c-0.2-0.1-0.3-0.2-0.5-0.3
		c0.3-1.3,1-2.5,1.5-3.7C25.4,28.1,25.9,27.2,26.3,26.4z"/>
	<path fill="#34495E" d="M58.1,19.5c-0.3,0.6-0.4,1.2,0,2c-1.6-0.3-2.9-0.8-4.4-1c-3.5-0.5-6.9-0.2-10.3,1c-0.2,0.1-0.3,0.1-0.5,0.2
		c-0.6,0.3-1,0.3-0.9-0.6c0-0.1-0.1-0.3-0.1-0.5C47.2,18.2,52.6,17.9,58.1,19.5z"/>
	<path fill="#34495E" d="M41.8,19.7c0-0.7-0.4-1.3-0.6-1.9c-0.1-0.2-0.1-0.4-0.4-0.4c-0.3,0.1-0.2,0.4-0.1,0.6
		c0.1,0.6,0.6,1.1,0.4,1.8c-0.2-0.5-0.4-0.9-0.6-1.4c-0.1-0.2-0.1-0.7-0.5-0.6s-0.1,0.6,0,0.8c0.1,0.5,0.3,1,0.4,1.5
		c-0.5-0.4-0.5-1.1-0.8-1.6c-0.1-0.2-0.2-0.7-0.5-0.6c-0.4,0.1-0.1,0.5,0,0.7c0.2,0.5,0.4,1.1,0.5,1.6c-0.5-0.5-0.6-1.1-0.9-1.7
		c-0.1-0.2-0.1-0.6-0.5-0.5c-0.3,0.1-0.1,0.4,0,0.6c0.2,0.6,0.6,1.2,0.6,1.9c-0.5,0.1-0.7-0.2-0.9-0.6c-0.2-0.6-0.4-1.2-0.7-1.7
		c-0.3-0.7,0-1.1,0.5-1.5c0.3-0.2,0.6-0.3,1-0.4c2.5-0.9,3.4-0.3,3.7,2.3C42.5,19.3,42.2,19.5,41.8,19.7z"/>
	<path fill="#34495E" d="M39.7,21.9c1,0.7,1,0.7-0.1,1.3c-2.4,1.3-4.4,3.1-6.1,5.2c-0.3,0.4-0.6,0.8-0.7,1.4
		c-0.2-0.2-0.2-0.5-0.2-0.8C34.5,26.2,36.7,23.7,39.7,21.9z"/>
	<path fill="#2C4050" d="M58.5,17.1c0.5-1.6,1.3-3,1.9-4.5c0.1-0.3,0.2-0.5,0.6-0.3c0.3,0.1,0.6,0.4,0.5,0.7
		c-0.6,1.5-1.3,3.1-2.1,4.6c-0.1,0.1-0.3,0.1-0.4,0.2C58.8,17.5,58.6,17.3,58.5,17.1z"/>
	<path fill="#2C4050" d="M59.7,10.9c0.3,0.3,0.6,0.6,0.4,1.1c-0.7,1.5-1.4,3-2.2,4.5c-0.5-0.4-0.4-0.9-0.2-1.4
		c0.4-0.8,0.8-1.6,1-2.5C59.2,12.1,59.3,11.4,59.7,10.9z"/>
	<path fill="#2C4050" d="M63.3,19.6c-0.2-0.4-0.1-0.7,0.1-1c0.6-1.2,1.1-2.5,1.7-3.7c0.2-0.5,0.5-0.7,1-0.4s0.2,0.6,0,0.9
		c-0.6,1.4-1.2,2.8-1.8,4.2C64,19.7,63.7,19.7,63.3,19.6z"/>
	<path fill="#2C4050" d="M64.9,19.7c0.6-1.5,1.3-2.9,1.9-4.4c0.2-0.5,0.6-0.8,1.2-0.8c-0.7,1.5-1.3,3-2,4.5
		C65.8,19.6,65.4,19.8,64.9,19.7z"/>
	<path fill="#2C4050" d="M62.2,19.1c-0.4-0.1-0.7-0.3-0.5-0.7c0.6-1.4,1.3-2.8,1.9-4.2c0.1-0.3,0.4-0.3,0.7-0.2s0.4,0.3,0.3,0.6
		c-0.6,1.4-1.3,2.8-1.9,4.2C62.6,19,62.4,19.1,62.2,19.1z"/>
	<path fill="#2C4050" d="M63,13.8c-0.1,0.3-0.3,0.6-0.4,0.9c-0.5,1.1-1,2.2-1.5,3.3c-0.1,0.3-0.3,0.6-0.7,0.4s-0.5-0.5-0.3-0.9
		c0.6-1.3,1.2-2.6,1.7-3.9c0.1-0.3,0.4-0.4,0.7-0.3S63,13.5,63,13.8z"/>
	<path fill="#BC9D70" d="M39.1,61.1c1.2,0.6,2.4,1.2,3.6,1.8c-0.8,0.9-1.9,1.5-3,2.1c-0.5,0.3-0.7-0.1-0.7-0.6
		C39.1,63.3,39.1,62.2,39.1,61.1z"/>
	<path fill="#BC9D70" d="M28.6,43.5c0.1,1.1,0.3,2.2,0.4,3.3c-0.8-0.2-1.4-0.8-2.2-1.2c-0.3-0.1-0.3-0.4-0.1-0.5
		C27.4,44.5,27.8,43.8,28.6,43.5z"/>
	<path fill="#EAEEEF" d="M63.4,55.7c-5.4,4.9-11.7,6.4-18.6,4.2c-7-2.3-11.2-7.3-12.5-14.5c-2-11.9,7.5-22.4,19.5-21.7
		c7.5,0.4,14.2,5.7,16.4,12.8c-0.7,0.4-1.5,0.5-2.4,0.6c0.2-0.2,0.6-0.4,0.3-0.8c-0.2-0.4-0.6-0.2-0.9,0c-1,0.4-2,0.7-3,1.1
		c-0.3,0.1-0.6,0.2-0.6,0.6c0,0.4,0.3,0.4,0.6,0.5c-0.5,1-1.3,1.7-1.4,2.9c-0.4,2.6,1,4.9,3.6,5.6c0.2,0.1,0.5,0,0.6,0.3
		c-0.4,0.1-0.8,0.2-1.2,0.3c-0.6-0.3-1.3-0.6-1.9-0.9c-0.5-0.2-0.9-0.2-1.2,0.3s0,0.9,0.5,1.2c0.3,0.2,0.6,0.3,1,0.4
		c-1.8,1.8-1.6,5.2,0.7,6.7C63.2,55.4,63.3,55.6,63.4,55.7z M54.4,42.5c0-1.3-0.6-2.3-1.4-3.3c0.8-1.7,1.6-3.4,2.3-5.1
		c0.3-0.6,0.2-1.2-0.5-1.5c-0.6-0.2-1,0-1.3,0.6c-0.8,1.7-1.5,3.4-2.3,5.1c-1.1,0.1-2.1,0.1-3,0.8c-0.2,0.2-0.4,0.2-0.7,0.2
		c-0.8-0.2-1.4,0.1-1.8,0.9c-0.3,0.8,0,1.4,1,1.9c0,1.1,0.4,2.1,1.3,2.8c0.1,0.2,0,0.4-0.1,0.6c-0.3,0.6-0.2,1.1,0.5,1.4
		c0.6,0.3,1.1,0,1.3-0.7c0.1-0.1,0.3-0.3,0.5-0.2c1.1,0.1,2.1-0.3,3-1c1.2,0.6,2.4,1.1,3.6,1.7c0.8,0.4,1.6,0,2-0.7
		c0.3-0.7,0.1-1.6-0.7-1.9C56.8,43.5,55.6,43,54.4,42.5z M40.3,37.3c0-0.3-0.2-0.6-0.5-0.7c-1.3-0.6-2.7-1.2-4.1-1.8
		c-0.4-0.2-0.8,0-1.1,0.4c-0.2,0.5,0,0.8,0.4,1c1.3,0.6,2.7,1.3,4,1.9C39.7,38.4,40.3,37.9,40.3,37.3z M43,57
		c-0.1,0.6,0.1,0.9,0.4,1.1c0.4,0.2,0.7,0.1,0.9-0.3c0.8-1.4,1.4-2.9,2-4.4c0.1-0.4-0.1-0.7-0.4-0.9c-0.4-0.2-0.8-0.1-0.9,0.2
		C44.2,54.3,43.6,55.8,43,57z M58.2,27.3c0-0.5-0.2-0.8-0.6-0.9c-0.4-0.1-0.8,0.1-0.9,0.5c-0.6,1.3-1.2,2.5-1.7,3.8
		c-0.2,0.5-0.2,1,0.3,1.2c0.6,0.3,0.9-0.1,1.1-0.6c0.6-1.2,1.1-2.4,1.6-3.6C58.1,27.6,58.1,27.4,58.2,27.3z M39.4,46.6
		c-0.1-0.3-0.4-0.4-0.8-0.3c-1.1,0.4-2.2,0.8-3.3,1.3c-0.3,0.1-0.6,0.2-0.5,0.6c0.1,0.4,0.4,0.3,0.7,0.2c1.1-0.4,2.2-0.8,3.3-1.2
		C39.2,47.1,39.4,46.9,39.4,46.6z M46.6,30.4c-0.4-1.1-0.9-2.3-1.4-3.5c-0.1-0.2-0.3-0.3-0.6-0.2c-0.3,0.1-0.3,0.3-0.2,0.6
		c0.5,1.2,0.9,2.4,1.4,3.6c0.1,0.2,0.3,0.3,0.6,0.3C46.6,31,46.6,30.8,46.6,30.4z M56.7,57.3c-0.4-1.1-0.9-2.4-1.4-3.6
		c-0.1-0.2-0.3-0.3-0.5-0.2s-0.3,0.4-0.2,0.6c0.4,1.2,0.9,2.4,1.3,3.6c0.1,0.2,0.3,0.4,0.5,0.3C56.7,57.9,56.7,57.7,56.7,57.3z"/>
	<path fill="#EAEEEF" d="M66.3,39.2c1.6,0,2.7,1.1,2.7,2.7c0,1.5-1.2,2.7-2.7,2.7c-1.4,0-2.7-1.3-2.7-2.7
		C63.6,40.4,64.8,39.2,66.3,39.2z"/>
	<path fill="#EAEEEF" d="M66,49.9c1.2,0,2.3,1,2.2,2.2c0,1.3-1.1,2.3-2.3,2.3c-1.1,0-2.1-1-2.1-2.2C63.9,50.8,64.8,49.9,66,49.9z"/>
	<path fill="#EAEEEF" d="M67.5,61.5c-1.1,0-1.9-0.8-1.9-1.8s0.8-1.8,1.8-1.9c0.9,0,1.8,0.9,1.8,1.9C69.3,60.8,68.5,61.5,67.5,61.5z"
		/>
	<path fill="#BCC2C6" d="M62.4,38.4c-0.3-0.1-0.6-0.1-0.6-0.5s0.3-0.5,0.6-0.6c1-0.4,2-0.8,3-1.1c0.3-0.1,0.6-0.3,0.9,0
		c0.3,0.4-0.1,0.6-0.3,0.8l0,0c-0.2,0.1-0.4,0.1-0.6,0.2c-0.8,0.3-1.7,0.5-2.5,1C62.6,38.3,62.5,38.3,62.4,38.4L62.4,38.4z"/>
	<path fill="#BCC2C6" d="M62.4,48.6c-0.3-0.1-0.7-0.3-1-0.4c-0.5-0.2-0.8-0.6-0.5-1.2c0.2-0.5,0.7-0.5,1.2-0.3
		c0.6,0.3,1.3,0.6,1.9,0.9C63.4,47.9,62.9,48.3,62.4,48.6z"/>
	<path fill="#EAEEEF" d="M65.3,37.3c0.2-0.1,0.4-0.1,0.6-0.2C65.7,37.3,65.5,37.3,65.3,37.3z"/>
	<path fill="#EAEEEF" d="M62.4,38.4c0.1-0.2,0.3-0.2,0.4-0.2C62.7,38.4,62.5,38.5,62.4,38.4z"/>
	<path fill="#34495E" d="M41.5,22.1C41.5,22.1,41.5,22.2,41.5,22.1c-0.1,0.1-0.1,0.1-0.1,0.1C41.4,22.1,41.4,22.1,41.5,22.1
		C41.4,22.1,41.4,22.1,41.5,22.1z"/>
	<path fill="#34495E" d="M53,39.2c0.8,0.9,1.4,2,1.4,3.3c-0.2,1-0.6,1.8-1.2,2.6c-0.9,0.6-1.8,1.1-3,1c-0.2,0-0.3,0.1-0.5,0.2
		c-0.4-0.7-1.2-0.7-1.7-1.2c-0.9-0.7-1.3-1.7-1.3-2.8c-0.1-1,0.7-1.8,0.8-2.8c0.3,0,0.5,0,0.7-0.2c0.9-0.7,1.9-0.8,3-0.8
		C51.8,38.8,52.4,39,53,39.2z M50.5,44.5c1.3,0.1,2.3-0.9,2.4-2.2c0-1.2-1-2.3-2.2-2.3c-1.2-0.1-2.2,0.9-2.3,2.1
		C48.3,43.4,49.2,44.4,50.5,44.5z"/>
	<path fill="#2C4050" d="M53.2,45.1c0.6-0.8,1-1.6,1.2-2.6c1.2,0.5,2.4,1,3.6,1.6c0.8,0.4,1.1,1.2,0.7,1.9c-0.3,0.7-1.1,1-2,0.7
		C55.6,46.2,54.4,45.6,53.2,45.1z"/>
	<path fill="#2C4050" d="M53,39.2c-0.6-0.2-1.2-0.5-1.7-0.8c0.8-1.7,1.5-3.4,2.3-5.1c0.3-0.6,0.7-0.9,1.3-0.6
		c0.7,0.3,0.7,0.8,0.5,1.5C54.6,35.8,53.8,37.5,53,39.2z"/>
	<path fill="#BCC2C6" d="M40.3,37.3c0,0.6-0.5,1-1.1,0.8c-1.4-0.6-2.7-1.2-4-1.9c-0.4-0.2-0.6-0.6-0.4-1c0.2-0.4,0.6-0.6,1.1-0.4
		c1.4,0.6,2.7,1.2,4.1,1.8C40.1,36.8,40.2,37,40.3,37.3z"/>
	<path fill="#BCC2C6" d="M43,57c0.6-1.3,1.3-2.7,2-4.2c0.2-0.4,0.6-0.4,0.9-0.2c0.4,0.2,0.6,0.5,0.4,0.9c-0.6,1.5-1.2,3-2,4.4
		c-0.2,0.3-0.6,0.4-0.9,0.3C43,58,42.9,57.7,43,57z"/>
	<path fill="#BCC2C6" d="M58.2,27.3c0,0.1,0,0.3-0.1,0.5c-0.5,1.2-1.1,2.4-1.6,3.6c-0.2,0.5-0.6,0.8-1.1,0.6
		c-0.5-0.3-0.6-0.7-0.3-1.2c0.6-1.3,1.2-2.5,1.7-3.8c0.2-0.4,0.5-0.6,0.9-0.5C58,26.5,58.1,26.8,58.2,27.3z"/>
	<path fill="#BCC2C6" d="M39.4,46.6c0,0.4-0.2,0.5-0.5,0.6c-1.1,0.4-2.2,0.8-3.3,1.2c-0.3,0.1-0.6,0.2-0.7-0.2
		c-0.1-0.4,0.2-0.5,0.5-0.6c1.1-0.4,2.2-0.8,3.3-1.3C39,46.2,39.3,46.2,39.4,46.6z"/>
	<path fill="#BCC2C6" d="M46.6,30.4c0.1,0.4,0,0.6-0.2,0.7c-0.3,0.1-0.5,0-0.6-0.3c-0.5-1.2-0.9-2.4-1.4-3.6c-0.1-0.2,0-0.5,0.2-0.6
		c0.3-0.1,0.5,0,0.6,0.2C45.7,28.1,46.2,29.3,46.6,30.4z"/>
	<path fill="#BCC2C6" d="M56.7,57.3c0,0.4,0,0.5-0.2,0.6c-0.3,0.1-0.5,0-0.5-0.3c-0.5-1.2-0.9-2.4-1.3-3.6c-0.1-0.2,0-0.5,0.2-0.6
		s0.4,0,0.5,0.2C55.8,54.9,56.3,56.2,56.7,57.3z"/>
	<path fill="#2C4050" d="M47.6,39.4c-0.1,1-0.9,1.7-0.8,2.8c-1-0.5-1.3-1.1-1-1.9C46.2,39.5,46.8,39.2,47.6,39.4z"/>
	<path fill="#2C4050" d="M48.1,45c0.5,0.6,1.3,0.6,1.7,1.2c-0.2,0.7-0.7,1-1.3,0.7c-0.6-0.2-0.7-0.8-0.5-1.4
		C48.1,45.4,48.2,45.2,48.1,45z"/>
	<path fill="#EAEEEF" d="M50.5,44.5c-1.2-0.1-2.1-1.1-2.1-2.3c0.1-1.2,1.1-2.2,2.3-2.1c1.2,0,2.2,1.1,2.2,2.3
		C52.8,43.6,51.7,44.5,50.5,44.5z"/>
	<path fill="#E74C3C" d="M99.3,44.1C96.8,23.5,81.6,6.4,61.1,1.7C59.4,1.3,57.7,1,56,0.8c-0.1,0-3.2-0.3-6.2-0.3
		c-2.9,0-5.9,0.3-6,0.3C22.8,3.6,6.4,18.4,1.5,38.9c-0.4,1.7-0.7,3.4-0.9,5.1c0,0.1-0.2,3-0.2,5.8c0,3.2,0.2,6.4,0.3,6.5
		c1,7.5,3.5,14.4,7.6,20.8c0.1,0.1,0.1,0.1,0.2,0.2c0.4-0.9,0.9-1.7,1.2-2.6c0.3-0.8,0.7-1,1.4-0.6c0.2,0.1,0.4,0.1,0.5,0.2
		c0.8-1.8,1.6-3.6,2.4-5.4c0.6,0.3,1.3,0.5,1.9,0.8c0.2,0.2,0.5,0.4,0.8,0.4c0.7,0.3,1.3,0.8,2.1,0.8c1-2.3,2-4.6,3.1-6.9
		c0.3-0.6,0.4-1.1,0.1-1.7c-1.8-4.6-3.5-9.2-5.2-13.7c-0.2-0.6-0.2-1.1,0-1.7c2.1-4.6,4.2-9.2,6.2-13.7c0.1-0.2,0.2-0.4,0.4-0.6
		c0.3-1.3,1-2.5,1.5-3.7c0.4-0.8,0.8-1.7,1.2-2.5c0.2-0.4,0.4-0.9,0.6-1.3c0.6-1.3,0.6-1.3,1.9-0.6c1.8,1.1,3.1,2.6,3.9,4.5
		c1.8-2.9,4.1-5.3,7.1-7.1c0-0.6,0-1.2-0.8-1.2c-0.5,0.1-0.7-0.2-0.9-0.6c-0.2-0.6-0.4-1.2-0.7-1.7c-0.3-0.7,0-1.1,0.5-1.5
		c0.3-0.2,0.6-0.3,1-0.4c2.5-0.9,3.4-0.3,3.7,2.3c0.1,0.5-0.2,0.7-0.6,0.9c-0.2,0.3,0,0.6,0.2,0.9c5.2-2.3,10.6-2.7,16.1-1.1
		c0.2-0.4,0.4-0.7,0.6-1.1c0-0.3,0.1-0.5,0.3-0.8c-0.1-0.2-0.3-0.4-0.4-0.6c-0.3-0.1-0.5-0.3-0.6-0.6c-0.5-0.4-0.4-0.9-0.2-1.4
		c0.4-0.8,0.8-1.6,1-2.5c-0.2,0-0.3,0.1-0.5,0.2c0.1-0.1,0.3-0.1,0.5-0.2c0.5-0.5,0.6-1.2,0.9-1.8c0-0.1,0-0.2,0.1-0.4
		c0-0.1,0.1-0.1,0.1-0.2c0-0.1,0-0.3,0-0.4c0,0.1,0,0.2,0,0.4c0.6-0.3,1.2-0.3,1.8-0.1c2,0.4,3.8,1.2,5.4,2.4
		c0.5,0.4,1.1,0.8,1.2,1.6c-0.1,0.1-0.2,0.3-0.2,0.4c-0.7,1.5-1.3,3-2,4.5c-0.2,0.5-0.6,0.7-1.1,0.7c-0.2,0.1-0.4,0.1-0.6,0
		c-0.3,0-0.6,0-0.9,0c0,0.3-0.2,0.6-0.4,0.8c-0.1,0.4-0.3,0.8-0.4,1.1c2.3,1.4,4.3,3.2,6.1,5.3c2.8-0.8,5.5-1.6,8.3-2.3
		c1.9-0.5,3.8-1,5.7-1.5c2.1-0.5,4.1,0.3,5.1,2.2c0.9,1.8,0.5,4-1.1,5.3c-0.6,0.5-1.3,0.7-2,1c-3.8,1-7.6,2.1-11.3,3.1
		c-0.2,0.1-0.4,0.1-0.7,0.2c0,0.2,0.1,0.4,0.1,0.7c1.4-0.3,2.8-0.7,4.1-1c2.7-0.6,5.3,0.9,5.9,3.5c0.7,2.7-0.8,5.2-3.6,5.9
		c-1.1,0.3-2.1,0.5-3.2,0.8c0,0.1,0,0.2,0,0.3c2.3-0.3,4.4,1.2,4.8,3.6c0.4,2.1-1,4.4-3.2,4.9c-1.6,0.4-3.3,0.7-4.9,1.1
		c0.2,0.3,0.4,0.3,0.7,0.3c1.7,0.5,2.8,1.9,2.8,3.7c0,1.7-1.1,3.3-2.8,3.7c-1.9,0.5-3.8,0.9-5.8,1.3c-0.6,1.2-1.2,2.5-2.3,3.5
		c-2.4,3-5.6,4.8-9.2,6c-3,1-6.2,1.5-9.4,1.7c-0.5,0-0.8,0.1-1,0.6c-0.9,2.2-1.9,4.3-2.9,6.5c1,0.5,2,0.9,3,1.4
		c0.4,0.2,0.5,0.4,0.3,0.8c-0.8,1.6-1.5,3.2-2.3,4.9c0.7,0.4,1.4,0.7,2.1,0.9l0,0c0.2,0.1,0.4,0.2,0.6,0.4l0.1-0.1l0,0l-0.1,0.1
		c0,0.6-0.5,1.1-0.6,1.8c-1.1,2.4-2.2,4.8-3.3,7.2c0.4,0.2,0.9,0.1,1.3,0.2c0.1,0,3,0.2,6,0.2c2.9,0,5.9-0.2,6-0.2
		c19.8-2.5,36.7-17,41.9-36.3c0.6-2.3,1.1-4.7,1.4-7.1c0-0.1,0.4-2.7,0.4-5.5C99.7,47.5,99.3,44.2,99.3,44.1z"/>
</g>
</svg>
