<?xml version="1.0" encoding="utf-8"?>
<!-- Generator: Adobe Illustrator 18.1.0, SVG Export Plug-In . SVG Version: 6.00 Build 0)  -->
<svg version="1.1" id="Calque_1" xmlns="http://www.w3.org/2000/svg" xmlns:xlink="http://www.w3.org/1999/xlink" x="0px" y="0px"
	 viewBox="0 0 100 100" enable-background="new 0 0 100 100" xml:space="preserve">
<circle fill="#F9B23F" cx="50" cy="50.1" r="49.6"/>
<g>
	<path fill="#3498DB" d="M61.4,66.9c5.9,0,11.4,0,17,0c3.2,0,5.3,1.8,5.4,4.5c0,2.8-2.1,4.7-5.4,4.7c-7.2,0-14.4,0-21.6,0
		c-3.8,0-5.7-1.9-5.3-5.7c1-9.9,5.8-17.4,14.3-22.6c2.3-1.4,4.7-2.8,6.6-4.5c2.5-2.2,2.9-5.6,1.6-8.4c-1.2-2.7-4.2-4.4-7.1-4.1
		c-3,0.3-5.6,2.5-6.2,5.5c-0.1,0.5-0.1,1.1-0.2,1.6c-0.3,2.6-2.3,4.4-4.7,4.3c-2.5-0.1-4.4-2.1-4.4-4.8c0.2-6.4,3.2-11.2,8.8-14
		c5.8-3,11.6-2.5,16.9,1.3c8.6,6.2,9.1,18.7,1,25.9c-2.2,1.9-4.8,3.4-7.4,4.9c-3.7,2.2-6.5,5.1-8.3,9C61.9,65.2,61.7,65.9,61.4,66.9
		z"/>
	<path fill="#3498DB" d="M31,65.3c-1.9,2.6-3.7,5-5.5,7.4c-2.5,3.4-5,4.2-7.4,2.3c-2.4-1.8-2.3-4.5,0.2-7.8c2.1-2.8,4.1-5.6,6.2-8.3
		c0.7-0.9,0.7-1.6,0-2.5c-2.4-3.1-4.7-6.2-7-9.3c-1.8-2.5-1.6-5.2,0.5-6.8c2.1-1.6,4.7-1.2,6.7,1.3c2.1,2.7,4.1,5.5,6.3,8.5
		c2.1-2.8,3.9-5.5,6-7.9c0.8-1,2.1-1.9,3.3-2.3c1.9-0.6,3.6,0.2,4.6,1.9c1.1,1.8,0.9,3.6-0.3,5.2c-2.1,2.9-4.2,5.7-6.3,8.5
		c-0.5,0.7-1,1.3-1.6,2.1c2.5,3.3,5,6.6,7.4,10c0.6,0.8,1.1,1.8,1.4,2.7c0.5,2-0.6,3.9-2.4,4.8c-1.9,0.9-4,0.6-5.4-1.2
		c-1.8-2.2-3.4-4.5-5.1-6.8C32.1,66.7,31.6,66.1,31,65.3z"/>
</g>
</svg>
