<?xml version="1.0" encoding="utf-8"?>
<!-- Generator: Adobe Illustrator 18.1.0, SVG Export Plug-In . SVG Version: 6.00 Build 0)  -->
<svg version="1.1" xmlns="http://www.w3.org/2000/svg" xmlns:xlink="http://www.w3.org/1999/xlink" x="0px" y="0px"
	 viewBox="0 0 142 85.5" enable-background="new 0 0 142 85.5" xml:space="preserve">
<g id="Calque_1">
	<g>
		<path fill="#2980B9" d="M102.4,30.7c0.1,0.2,0.3,0.4,0.4,0.6c0,0,0,0.1,0,0.1c0,0-0.1,0-0.1-0.1c-0.1-0.1-0.2-0.2-0.3-0.3
			c0,0-0.1,0-0.1-0.1c0,0,0,0.1,0.1,0.1c0.1,0.2,0.3,0.4,0.4,0.6c0,0.1,0,0.2-0.1,0.3c-0.1,0.1-0.3,0.2-0.4,0.3c-0.1,0-0.2,0-0.2,0
			c-0.1-0.1-0.1-0.4-0.4-0.2c0,0-0.2-0.1-0.2-0.1c-1.6-1.3-2.8-2.8-3.6-4.7c0-0.1-0.1-0.1-0.1-0.2c-0.1,0.1-0.2,0.1-0.2,0.2
			c-0.1,0.4-0.2,0.9-0.2,1.3c0,0.5,0.1,1-0.3,1.5c0,0,0,0.2,0,0.3c0,0.1,0,0.3,0,0.3c-0.2,0-0.5,0.1-0.5-0.3c0-0.1,0-0.1-0.1-0.2
			c0,0.1-0.1,0.1-0.1,0.2c-0.1,0.1-0.1,0.2-0.2,0.2c-0.1,0-0.2,0-0.3-0.1c-0.4-0.4-0.5-0.8-0.4-1.3c0.3-1.3,0.5-2.6,0.7-3.9
			c0-0.2,0.1-0.4,0.2-0.6c0,0.2,0,0.5-0.1,0.7c0,0.1,0,0.1,0.1,0.2c0,0,0.1-0.1,0.1-0.1c0.2-0.7,0.3-1.4,0.5-2.1c0,0,0-0.1,0-0.1
			c0,0-0.1,0.1-0.1,0.1c0,0.1,0,0.2-0.1,0.3c0,0-0.1,0-0.1,0.1c0-0.4-0.3-0.1-0.5-0.2c-0.1,0-0.2,0-0.2-0.1c0.1-0.1,0.1-0.2,0.2-0.3
			c0.1-0.1,0.3-0.1,0.4-0.1c0,0,0.1-0.1,0.1-0.1c0,0-0.1-0.1-0.1-0.1c-0.2,0.1-0.5,0.1-0.7,0.2c-0.1,0-0.1,0-0.2,0
			c0.1-0.1,0.1-0.1,0.2-0.2c0.1,0,0.2-0.1,0.3-0.1c-0.1,0-0.2-0.1-0.3-0.1c-0.1-0.1-0.2-0.1-0.2-0.2c0,0,0.1-0.1,0.2-0.2
			c0.4-0.2,0.8-0.4,1.1-0.6c1.2-0.7,2.4-0.5,3.6,0.1c0.8,0.4,1.2,1.4,1,2.3c0,0.1-0.1,0.1-0.1,0.2c-0.3,0.4-0.6,0.9-0.9,1.3
			c0,0.1-0.1,0.1-0.1,0.2c0.1,0,0.1-0.1,0.2-0.1c0.3-0.3,0.6-0.5,0.9-0.8c0,0,0.1-0.1,0.2-0.1c0,0.1,0,0.2,0,0.2
			c-0.1,0.2-0.2,0.4-0.3,0.6c-0.4,0.6-0.9,1.1-1.7,1.3c-0.2,0-0.3,0.4-0.1,0.5c0.7,0.9,1.4,1.8,2.2,2.7c0.1,0.1,0.1,0.1,0.1,0.2
			c0.1,0.1,0.3,0.2,0.4,0.3c0-0.1,0-0.3,0-0.4c0.1-0.4,0.2-0.8,0.3-1.2c0-0.1,0-0.2,0.1-0.3c0,0.1,0,0.2,0.1,0.4c0,0.1,0,0.2,0,0.2
			c0-0.1-0.1-0.5-0.1-0.6c0.2-0.5,0.1-0.5,0.2-1c0,0,0.1-0.3,0.1-0.3c-0.1,0-0.2,0.2-0.2,0.2c0,0.1-0.2,0.1-0.2,0.2c0,0,0,0.1,0,0.1
			c0.5,0.1,0,0.4,0.1,0.6c0,0,0,0-0.1,0.1c0-0.1,0-0.1,0-0.2c0-0.1,0-0.1,0-0.2c0,0-0.1,0.1-0.1,0.1c0,0,0,0-0.1,0.1
			c0,0-0.1-0.1,0-0.1c0.1-0.5,0.4-1,0.5-1.6c0-0.2,0-0.4,0-0.6c0,0,0,0,0-0.1c0.2-0.8,0.2-1.7,0.4-2.6c0,0,0.1,0,0.1,0
			c0.1,0,0.1-0.1,0.1-0.1c0-0.6,0.1-1.3,0.1-1.9c0-0.1,0-0.3,0.2-0.1c0.1,0.1,0.3,0.1,0.4,0c1.5,0,3-0.1,4.5-0.1
			c0.2,0,0.6,0.2,0.6,0.4c0.1,0.4-0.4,0.9-0.8,0.9c-1,0-1.9,0.1-2.9,0.1c-0.1,0-0.1,0.1-0.2,0.1c0.1,0,0.1,0.1,0.2,0.1
			c0.2,0,0.5,0,0.7,0c0.5,0,1,0,1.5,0c0,0,0.1,0,0.1,0.1c-0.1,0-0.1,0.1-0.2,0.1c-0.8,0.1-1.6,0.2-2.4,0.3c-0.1,0-0.2,0.1-0.2,0.2
			c-0.1,0.4-0.1,0.8-0.2,1.2c0,0.1,0.1,0.2,0.2,0.2c0.9-0.1,1.9-0.1,2.8-0.2c0.1,0,0.2,0,0.2,0c0.1,0,0.1,0.1,0.1,0.2
			c0,0-0.1,0-0.1,0.1c0,0-0.1,0-0.1,0c0,0,0.1,0.1,0.1,0.1c0.2,0,0.3,0.1,0.5,0.1c0.1,0,0.2,0.1,0.2,0.1c0,0.1-0.1,0.2-0.2,0.3
			c-0.4,0.2-0.8,0.4-1.3,0.5c-0.9,0.2-1.9,0.3-2.9,0.4c0,0-0.1,0.1-0.1,0.1c-0.2,0.5-0.4,0.9-0.5,1.4c0,0-0.1,0-0.1,0
			c0,0,0-0.1,0-0.1c0-0.3,0-0.5,0-0.8c0-0.1,0-0.1-0.1-0.2c0,0-0.1,0.1-0.1,0.1c-0.1,0.4-0.1,0.9-0.2,1.3c0,0,0.1,0.1,0.1,0.1
			c1.5-0.1,3-0.2,4.5-0.3c0.2,0,0.5,0.1,0.8,0.1c0,0,0.1,0.2,0.1,0.2c-0.3,0-0.1,0.2-0.1,0.2c-0.1,0.2-0.2,0.4-0.3,0.5
			c-0.3,0.1-0.7,0.1-1,0.2c0,0-0.1,0-0.1,0c0,0,0.1,0.1,0.1,0.1c0.2,0,0.4,0,0.6,0c0.1,0,0.1,0.1,0.2,0.1c-0.1,0.1-0.1,0.2-0.2,0.2
			c-1.3,0.2-2.6,0.4-3.8,0.6c-0.4,0.1-0.8,0.1-1.2,0.2C102.9,30.8,102.6,30.7,102.4,30.7C102.4,30.7,102.3,30.7,102.4,30.7
			C102.3,30.7,102.3,30.7,102.4,30.7z M100.6,23.5c-0.1-0.2-0.2-0.3-0.3-0.4c-0.4-0.2-0.8-0.4-1.2-0.5c-0.2,0-0.7,0.1-0.7,0.3
			c-0.2,0.8-0.4,1.6-0.6,2.4c0,0,0,0.1,0,0.1c0,0,0.1,0,0.1,0c0.8-0.5,1.5-1,2.3-1.6C100.4,23.8,100.4,23.7,100.6,23.5z"/>
		<path fill="#2980B9" d="M116.9,27.9c0.1,0,0.1,0.1,0.2,0.1c0,0.1,0,0.2,0,0.3c0,0.1,0,0.2-0.1,0.3c0-0.1,0-0.2,0-0.3
			c0,0,0-0.1,0-0.1c0,0-0.1,0.1-0.1,0.1c0,0,0,0.1-0.1,0.1c0-0.1-0.1-0.1-0.1-0.2c0.1-0.6,0.2-1.2,0.3-1.7c0.1-0.3,0.2-0.6,0.2-0.8
			c0.1-0.7,0.1-1.3,0.2-2c0,0,0.1-0.1,0.1-0.1c0,0,0.1-0.1,0.1-0.1c0-0.6,0.1-1.2,0.1-1.9c0-0.1,0-0.3,0.2-0.1
			c0.1,0.1,0.3,0.1,0.4,0.1c1,0,2-0.1,2.9-0.1c0.5,0,0.9,0,1.4,0c0.2,0,0.3,0.1,0.5,0.1c0,0,0.1,0.1,0.1,0.1
			c1.2-0.1,2.3-0.2,3.5-0.2c1.2-0.1,2.5-0.1,3.7-0.1c0.1,0,0.3,0,0.4,0.1c0.1,0,0.1,0.1,0.1,0.2c-0.1,0-0.1,0.1-0.2,0.1
			c0,0-0.1,0-0.1,0c0,0,0,0.1,0.1,0.1c0.2,0.2,0.1,0.4-0.1,0.5c-0.4,0.1-0.8,0.2-1.2,0.3c-0.3,0.1-0.7,0.1-1,0.1
			c-0.3,0-0.3,0.2-0.2,0.4c0,0,0,0.1,0,0.1c-0.4,2.4-0.9,4.8-1.3,7.2c-0.1,0.4,0.2,0.9,0.3,1.4c0,0.1,0,0.1,0,0.2
			c-0.1,0-0.2-0.1-0.2-0.1c-0.1-0.4-0.2-0.8-0.3-1.2c0-0.3,0.1-0.6,0.1-0.9c0-0.1,0-0.1,0-0.2c0,0,0,0.1-0.1,0.1c0,0,0,0.1-0.1,0.1
			c-0.3,0-0.3,0.3-0.3,0.5c0.1,0.5,0.1,1.1,0.2,1.6c0,0.1,0,0.2,0,0.2c-0.1,0-0.2,0-0.3-0.1c-0.2-0.1-0.3-0.4-0.6-0.2
			c0,0-0.1,0-0.1-0.1c-0.1-0.5-0.3-1-0.4-1.5c0,0,0.1,0,0.1-0.1c0,0,0.1-0.1,0.1-0.1c0-0.1-0.1-0.2-0.1-0.4
			c-0.1-0.2-0.2-0.4,0.2-0.5c0.1,0,0.1-0.3,0.1-0.5c0,0-0.1-0.1-0.1-0.1c0,0-0.1,0-0.1-0.1c0,0,0.1,0,0.1-0.1
			c0.1-0.1,0.2-0.1,0.2-0.2c-0.1,0-0.1-0.1-0.2-0.1c0,0,0-0.1,0-0.1c0-0.3,0-0.6,0.3-0.8c0,0,0-0.1,0-0.1c-0.1-1.2,0.3-2.4,0.4-3.5
			c0-0.2,0-0.3-0.3-0.3c-0.7,0-1.4,0-2,0c0,0-0.1,0-0.1-0.1c0,0,0.1-0.1,0.1-0.1c0.3,0,0.5-0.1,0.8-0.1c0.5,0,0.9,0,1.4,0
			c0.1,0,0.1-0.1,0.2-0.2c-0.1,0-0.1-0.1-0.2-0.1c-0.5,0.1-1,0.2-1.4,0.1c-0.5-0.1-1,0.2-1.5-0.1c-0.1-0.1-0.2,0-0.3,0
			c-1,0-1.9,0.1-2.9,0.1c-0.1,0-0.1,0.1-0.2,0.1c0.1,0,0.1,0.1,0.2,0.1c0.2,0,0.5,0,0.7,0c0.5,0,1,0,1.6,0c0,0,0.1,0,0.1,0.1
			c-0.1,0-0.1,0.1-0.2,0.1c-0.8,0.1-1.6,0.2-2.4,0.3c-0.1,0-0.2,0.1-0.2,0.2c-0.1,0.4-0.1,0.8-0.2,1.2c0,0.1,0.1,0.2,0.2,0.2
			c1-0.1,1.9-0.1,2.9-0.2c0.1,0,0.2,0,0.3,0.1c0,0.1,0,0.1-0.1,0.1c0,0-0.1,0-0.1,0c0,0,0.1,0.1,0.1,0.1c0.1,0,0.3,0.1,0.4,0.1
			c0.1,0,0.1,0.1,0.2,0.1c0,0.1-0.1,0.2-0.1,0.2c-0.4,0.2-0.8,0.4-1.3,0.5c-0.9,0.2-1.8,0.3-2.8,0.4c-0.1,0-0.3-0.1-0.3,0.2
			c0,0.3-0.2,0.6-0.3,1c-0.1,0.2-0.2,0.3-0.2,0.4c0-0.2,0-0.3,0-0.5c0-0.2,0-0.4,0-0.5c0,0.2-0.1,0.3-0.1,0.5
			c-0.1,0.3-0.1,0.6-0.1,1c0,0,0.1,0.1,0.1,0.1c1.5-0.1,3-0.2,4.5-0.3c0.2,0,0.5,0.1,0.8,0.1c0,0,0.1,0.1,0.1,0.1
			c0,0-0.1,0.1-0.1,0.1c0,0,0,0.1,0,0.1c-0.1,0.2-0.1,0.5-0.2,0.5c-0.3,0.1-0.7,0.2-1.1,0.2c0,0-0.1,0-0.1,0c0,0,0.1,0.1,0.1,0.1
			c0.2,0,0.4,0,0.6,0c0.1,0,0.1,0.1,0.2,0.1c0,0.1-0.1,0.1-0.2,0.2c-1.5,0.2-3,0.4-4.5,0.7c-0.2,0-0.5,0.1-0.7,0.1
			c-0.6,0.1-0.9-0.3-0.7-0.8c0.1-0.4,0.2-0.7,0.3-1.1c0-0.1,0-0.1,0-0.2c0,0,0-0.1,0-0.1c0,0,0.1,0,0.1,0c0,0,0,0.1,0,0.1
			c0,0.2,0,0.3,0,0.5c0.1-0.1,0.1-0.3,0.2-0.4c0.1-0.5,0.1-0.9,0.1-1.4c0,0-0.1-0.1-0.1-0.1c0,0-0.1,0-0.1,0.1
			C116.9,27.6,116.9,27.8,116.9,27.9C116.8,27.9,116.8,27.9,116.9,27.9C116.8,27.9,116.9,27.9,116.9,27.9z M125.3,30.5
			c0,0,0,0.1,0.1,0.1c0,0,0.1-0.1,0.1-0.1c-0.1-0.4-0.1-0.7,0-1.1c0.1-0.2,0-0.4,0.1-0.6c0-0.2,0-0.4,0-0.6c0,0-0.1-0.1-0.1-0.1
			c0,0-0.1,0.1-0.1,0.1C125.5,28.9,125.4,29.7,125.3,30.5z"/>
		<path fill="#2980B9" d="M94.5,23.7c0,0.3-0.1,0.5-0.1,0.8c0,0-0.1,0.1-0.1,0.1c0-0.1-0.1-0.1-0.1-0.2c0-0.2,0.1-0.4,0.1-0.5
			c0,0-0.1-0.1-0.1-0.1c-0.1,0-0.2,0-0.2,0c-0.2,0.6-0.7,0.9-1.2,1.2c-0.1,0-0.1,0.1-0.2,0.2c0.1,0,0.2,0.1,0.2,0.1
			c0.3-0.1,0.6-0.2,1-0.3c0.1,0,0.1,0,0.2-0.1c0,0.1,0,0.2,0,0.2c-0.2,0.2-0.4,0.4-0.6,0.6c0.2,0.2,0.5,0.3,0.7,0.5
			c0.4,0.5,0.8,1,1.1,1.5c0,0.1,0,0.2,0,0.3c-0.3,0.4-0.5,0.8-0.9,1c-1.4,1-3.1,1.6-4.7,2.1c-0.3,0.1-0.6,0.1-0.7-0.2
			c0,0-0.1-0.1-0.1,0c-0.2,0.1-0.4,0.3-0.6,0.4c-0.1,0.1-0.2,0.1-0.2,0.2c-0.1-0.1-0.1-0.2-0.2-0.3c0-0.1,0-0.3,0-0.4
			c0,0,0-0.1,0-0.1c0,0-0.1,0.1-0.1,0.1c-0.1,0.1-0.1,0.3-0.2,0.5c0-0.2,0-0.3,0-0.5c-0.1-0.3-0.3-0.6-0.3-0.9c0-0.7,0.2-1.3,0.3-2
			c0.2-1.1,0.6-2.2,0.7-3.4c0.1-1,0.5-1.9,0.2-2.9c0,0,0-0.1,0.1-0.1c0.2-0.1,0.4-0.2,0.6-0.3c0.3-0.1,0.5-0.1,0.7,0.1
			c0,0,0.1,0.1,0.2,0.1c0.6,0,1.1,0,1.7,0c0.9,0,1.6,0.5,2.2,1.1C94.1,22.8,94.3,23.2,94.5,23.7C94.5,23.6,94.5,23.7,94.5,23.7z
			 M89.6,28.9c0.1,0,0.2,0,0.3,0c1.1-0.4,2.1-0.9,3.2-1.3c0.2-0.1,0.3-0.3,0.5-0.4c-0.2-0.1-0.4-0.3-0.6-0.4c0,0-0.1,0-0.1,0
			c-1,0-2,0-3,0c-0.1,0-0.2,0.1-0.2,0.2c-0.1,0.6-0.2,1.1-0.3,1.7C89.2,28.8,89.3,28.9,89.6,28.9z M92,24.5C92,24.5,92,24.6,92,24.5
			c0.4-0.1,0.7-0.3,1-0.5c0.2-0.1,0.3-0.4,0.4-0.6c0,0,0-0.1,0-0.2c-0.1,0-0.1,0.1-0.2,0.1c0,0,0,0.1-0.1,0.2
			c-0.1,0.1-0.2,0.1-0.3,0.2c0-0.1-0.1-0.2-0.1-0.4c0,0,0.1-0.1,0.1-0.1c0,0,0.1,0,0.2,0c0-0.1-0.1-0.1-0.1-0.2
			c-0.6-0.4-1.2-0.4-1.8-0.4c-0.8,0-1.1,0.5-1.1,1.2c0,0.6,0,0.6,0.6,0.5c0.1,0,0.3,0,0.4,0c0,0,0.1,0.1,0.1,0.1
			c0,0,0.1,0.1,0.1,0.1c0.5-0.2,0.9-0.4,1.4-0.6c0,0,0.1,0,0.2,0c0,0-0.1,0.1-0.1,0.1C92.5,24.2,92.2,24.4,92,24.5z M92.5,29.3
			C92.5,29.3,92.5,29.3,92.5,29.3c0.3-0.1,0.5-0.2,0.7-0.3c0.5-0.3,1-0.6,1.5-0.9c0,0,0-0.2-0.1-0.3c-0.1,0-0.2,0-0.2,0.1
			c-0.2,0.1-0.3,0.3-0.4,0.4C93.5,28.6,93,28.9,92.5,29.3z M92.4,26.2c-0.1,0-0.1,0.1-0.2,0.1c0,0,0.1,0.1,0.1,0.1
			c0.3,0.1,0.7,0.2,1,0.2c0,0,0.1,0,0.1,0c0,0-0.1-0.1-0.1-0.1C93,26.4,92.7,26.3,92.4,26.2z M92.4,22.5c0,0-0.1,0-0.1,0.1
			c0,0,0.1,0.1,0.1,0.1c0.2,0.1,0.4,0.1,0.6,0.1c0.1,0,0.1,0,0.2,0c0-0.1-0.1-0.1-0.1-0.2C92.8,22.6,92.6,22.5,92.4,22.5z"/>
		<path fill="#2980B9" d="M131.3,26.1c0,0.1,0,0.2,0,0.2c0,0-0.1,0-0.1-0.1c-0.4-0.4-0.8-0.7-1.2-1.2c-0.1-0.1-0.1-0.4,0-0.6
			c0.2-0.4,0.4-0.7,0.6-1.1c0.2-0.3,0.5-0.5,0.7-0.7c0,0,0.1,0,0.1,0c0.2,0.3,0.3,0,0.3-0.1c0.6-0.4,1.1-0.8,1.7-1.3
			c0,0,0.1-0.1,0.2-0.1c0.6,0.1,1.2,0.1,1.8,0.2c0.1,0,0.1,0,0.2,0c-0.1,0-0.1,0.1-0.2,0.1c-0.1,0-0.3,0-0.4,0c-0.1,0-0.1,0-0.2,0.1
			c0.1,0,0.1,0.1,0.2,0.1c0.4,0.1,0.7,0.1,1.1,0.2c0.1,0,0.2,0.1,0.3,0.2c0.1,0.1,0.1,0.3,0.2,0.4c-0.1,0-0.2,0-0.4,0.1
			c-0.1,0-0.2,0-0.2,0.1c0.1,0,0.1,0.1,0.2,0.1c0.1,0,0.3,0,0.4,0.1c0.1,0,0.1,0.1,0.2,0.1c-0.1,0-0.1,0-0.2,0.1c-0.1,0-0.1,0-0.2,0
			c-0.1,0-0.2,0-0.3,0c0.1,0,0.2,0.1,0.2,0.1c0,0,0.1,0.1,0.1,0.1c0,0-0.1,0-0.1,0c-1.3,0-2.5,0.5-3.4,1.4c-0.1,0-0.1,0.1-0.1,0.2
			c0.1,0,0.1,0.1,0.2,0.1c1.4,0.4,2.5,1.3,3.3,2.5c0.1,0.1,0.1,0.2,0,0.4c-0.4,1.2-1.3,2-2.3,2.7c-0.2,0.1-0.4,0.1-0.6,0.1
			c0,0-0.1,0-0.1,0.1c0,0,0.1,0,0.1,0.1c0,0,0.1,0,0.1,0c0,0,0,0.1-0.1,0.1c-0.7,0.2-1.3,0.4-2,0.6c0,0-0.1-0.1-0.1-0.1
			c0,0,0.1-0.1,0.1-0.1c0.1,0,0.2,0,0.3,0c0.1,0,0.1,0,0.2-0.1c-0.1,0-0.1-0.1-0.2-0.1c-0.7-0.1-1.7-1-1.7-1.7
			c0-0.1,0.1-0.3,0.3-0.4c0,0,0.2,0.1,0.3,0.1c0.2,0,0.4,0.1,0.6,0c0.7-0.2,1.5-0.4,2.1-0.7c0.5-0.2,0.8-0.6,0.9-1.2
			c0-0.1,0-0.2-0.1-0.2c-0.5-0.2-0.9-0.4-1.4-0.6C132.3,26.3,131.8,26.2,131.3,26.1C131.4,26.1,131.3,26.1,131.3,26.1z M134.8,22.7
			c-0.1,0-0.1,0-0.1,0c-1,0.4-1.9,0.8-2.7,1.6c0,0,0,0.1-0.1,0.1c0,0,0.1,0,0.1,0c0.9-0.5,1.7-1.3,2.8-1.4
			C134.9,23,134.9,22.9,134.8,22.7C134.9,22.8,134.8,22.7,134.8,22.7z M132.3,31c0.1,0,0.3-0.1,0.5-0.1c0,0,0.1-0.1,0.1-0.1
			c0,0-0.1,0-0.1,0c-0.3,0-0.6,0.1-0.8,0.1c0,0-0.1,0-0.1,0.1c0,0,0.1,0,0.1,0.1C132,31,132.1,31,132.3,31z"/>
		<path fill="#2980B9" d="M109.3,21.4c0.8,0,1.1,0.2,1.3,0.8c0,0,0,0.1,0.1,0.1c0,0,0-0.1,0.1-0.1c0-0.1,0.1-0.1,0.1-0.2
			c0.1,0.1,0.2,0.1,0.2,0.2c0.3,1.1,0.5,2.3,0.7,3.4c0.1,0.4,0,0.8,0,1.1c0,0.1,0.1,0.1,0.1,0.2c0,0,0,0.1,0,0.1c0,0,0,0.1,0,0.1
			c0,0.2,0,0.3,0,0.5c0.1-0.1,0.2-0.3,0.2-0.4c0.5-0.8,0.9-1.6,1.4-2.4c0.4-0.6,0.9-1.2,1.4-1.8c0.1-0.1,0.3-0.1,0.4,0
			c0.6,0.3,0.2,0.6-0.1,0.9c0,0.1-0.1,0.1-0.1,0.2c0.1,0,0.1,0,0.2,0c0.1,0,0.1-0.1,0.1-0.1c0.1-0.2,0.2-0.4,0.4-0.5
			c0.1-0.1,0.2-0.4,0.3,0.1c0.1,0.4-0.1,0.5-0.2,0.7c-0.5,0.7-1.1,1.3-1.5,2c-0.8,1.3-1.5,2.7-2.3,4.1c0,0.1-0.3,0.1-0.4,0.1
			c-0.1,0-0.3,0.1-0.3,0.2c0,0.3-0.2,0.3-0.4,0.2c-0.2-0.1-0.4-0.2-0.6-0.3c0,0-0.1,0-0.1,0c-0.1,0-0.2,0.1-0.3,0.1
			c0,0-0.1-0.1-0.1-0.2c0-0.6,0.1-1.2,0-1.8c-0.1-1.8-0.3-3.6-0.4-5.3c0-0.3-0.2-0.5-0.3-0.8c0,0,0-0.1,0-0.1c0-0.2,0-0.5-0.1-0.7
			C109.2,21.5,109.3,21.4,109.3,21.4z M110.3,26.4c0,0.2,0,0.3,0,0.5c0,0,0,0.1,0,0.1c0,0,0.1-0.1,0.1-0.1c0-0.3,0-0.7,0-1
			c0-0.1,0-0.1-0.1-0.2c0,0.1-0.1,0.1-0.1,0.2C110.3,26.1,110.3,26.3,110.3,26.4z"/>
		<path fill="#2980B9" d="M105.1,26.7c0.5,0,1-0.1,1.6-0.1c0,0,0.1,0,0.1,0.1c0,0-0.1,0.1-0.1,0.1c-0.6,0.1-1.3,0.1-2,0.2
			c-0.1,0-0.1-0.1-0.2-0.1c0.1,0,0.1-0.1,0.2-0.1C104.8,26.7,105,26.7,105.1,26.7C105.1,26.7,105.1,26.7,105.1,26.7z"/>
		<path fill="#2980B9" d="M119.3,26.8c0.5,0,1-0.1,1.6-0.1c0,0,0.1,0,0.1,0c0,0-0.1,0.1-0.1,0.1c-0.6,0.1-1.3,0.1-1.9,0.2
			c-0.1,0-0.1-0.1-0.2-0.1c0.1,0,0.1-0.1,0.2-0.1C119,26.7,119.2,26.7,119.3,26.8C119.3,26.7,119.3,26.7,119.3,26.8z"/>
		<path fill="#2980B9" d="M112.9,25.1c0,0,0-0.1,0-0.1c0.3-0.4,0.6-0.9,1-1.3c0,0,0,0,0.1,0c0,0,0,0.1,0,0.1
			C113.6,24.1,113.3,24.6,112.9,25.1C113,25,112.9,25,112.9,25.1z"/>
	</g>
	<path fill="#2980B9" d="M114.4,71.2H50.7c-2.9,0-5.3-2.4-5.3-5.3v-11c0-2.9,2.4-5.3,5.3-5.3h63.7c2.9,0,5.3,2.4,5.3,5.3v11
		C119.7,68.8,117.3,71.2,114.4,71.2z"/>
	<g>
		<path fill="#FFFFFF" d="M55.7,54.4h2.1v9h3v2h-5.1V54.4z"/>
		<path fill="#FFFFFF" d="M70.3,61.9h-6.5c0.1,0.6,0.3,1,0.8,1.4s0.9,0.5,1.6,0.5c0.8,0,1.4-0.3,2-0.8l1.7,0.8
			c-0.4,0.6-0.9,1.1-1.5,1.3s-1.3,0.4-2.1,0.4c-1.3,0-2.3-0.4-3.1-1.2c-0.8-0.8-1.2-1.8-1.2-3c0-1.2,0.4-2.3,1.2-3.1
			c0.8-0.8,1.8-1.2,3-1.2c1.3,0,2.3,0.4,3.1,1.2c0.8,0.8,1.2,1.9,1.2,3.2L70.3,61.9z M68.3,60.3c-0.1-0.5-0.4-0.8-0.8-1.1
			c-0.4-0.3-0.9-0.4-1.4-0.4c-0.6,0-1.1,0.2-1.5,0.5c-0.3,0.2-0.5,0.5-0.7,1H68.3z"/>
		<path fill="#FFFFFF" d="M85.9,63.7l1.9,2.5h-2.5l-1-1.2c-0.8,0.4-1.7,0.7-2.7,0.7c-1.6,0-3-0.6-4.1-1.7c-1.1-1.1-1.6-2.5-1.6-4.1
			c0-1,0.3-2,0.8-2.9s1.2-1.6,2.1-2.1c0.9-0.5,1.8-0.8,2.9-0.8c1.6,0,2.9,0.6,4,1.7s1.7,2.5,1.7,4.1C87.3,61.4,86.8,62.7,85.9,63.7z
			 M84.6,62c0.4-0.7,0.7-1.4,0.7-2.2c0-1-0.3-1.9-1.1-2.6c-0.7-0.7-1.5-1.1-2.5-1.1c-1,0-1.9,0.4-2.6,1.1c-0.7,0.7-1,1.6-1,2.7
			c0,1.2,0.4,2.2,1.3,2.9c0.7,0.6,1.5,0.8,2.3,0.8c0.5,0,1-0.1,1.4-0.3l-2-2.5h2.5L84.6,62z"/>
		<path fill="#FFFFFF" d="M89.2,54.4h2.1v7.1c0,0.6,0.1,1,0.2,1.3c0.1,0.3,0.3,0.5,0.5,0.6c0.2,0.2,0.5,0.2,0.9,0.2
			c0.4,0,0.7-0.1,0.9-0.3c0.3-0.2,0.4-0.4,0.6-0.6c0.1-0.3,0.2-0.8,0.2-1.5v-6.8h2.1v6.5c0,1.1-0.1,1.9-0.2,2.3
			c-0.1,0.4-0.4,0.8-0.7,1.2s-0.8,0.7-1.2,0.9c-0.5,0.2-1,0.3-1.6,0.3c-0.8,0-1.5-0.2-2.1-0.5c-0.6-0.4-1-0.8-1.3-1.4
			c-0.3-0.5-0.4-1.5-0.4-2.8V54.4z"/>
		<path fill="#FFFFFF" d="M98.9,54.4h2.1v11h-2.1V54.4z"/>
		<path fill="#FFFFFF" d="M102.7,54.4h6.6l-3.9,8.9h3.6v2h-6.7l3.9-8.9h-3.6V54.4z"/>
	</g>
	<g>
		<path fill="#2980B9" d="M89.8,40.3c-1,0.2-1.9,0.4-2.8,0.7c0,0.1,0,0.1,0,0.2c0.5,0,1.1,0,1.6,0c0,0,0,0.1,0,0.1
			c-0.3,0.1-0.6,0.2-0.9,0.3c-0.8,0.2-1.5,0.6-1.6,1.6c0,0.3-0.2,0.7-0.4,0.9c-0.2,0.2-0.5,0.3-0.7,0.5c-0.1-0.3-0.2-0.5-0.4-0.8
			c0,0-0.2,0.1-0.3,0c-0.6-0.9-1.4-0.5-2.1-0.3c-1.4,0.4-2.9,0.8-4.3,1.3C77,45,77,45,76.4,44.2c0.9-0.4,0.2-0.9,0.2-1.4
			c0.1-1.3,0.2-2.6,0.5-3.9c-0.1,0.8-0.1,1.7-0.2,2.5c0.7-2.3,0.3-4.7,1.1-7.1c0.4,0.4,0.7,0.6,1.2,1c-0.2,2.2-0.4,4.7-0.6,7.1
			c2-0.2,3.7-0.4,5.5-0.7c0.2,0,0.5-0.3,0.6-0.5c0.4-0.7,0.6-1.5,1-2.2c0.2-0.4,0.5-0.6,0.8-1.1c-0.3-0.6-0.1-1.3,0.5-1.8
			c0.1-0.1,0-0.3,0-0.4c0.1-0.5,0.3-1.1,0.4-1.5c0.5-0.1,0.9-0.1,1.2-0.2c1-0.3,1.8,0.1,2.1,1.1c0.2,0.9,0.4,1.7,0.6,2.6
			c0.1,0.4-0.1,1,0.7,1c0,0,0,0.4,0.1,0.5c0.2,0.1,0.5,0.2,0.9,0.3c-0.5,0.2-0.8,0.3-1.1,0.5c0,1.5,0,3,0,4.5c0,0.2,0,0.4,0,0.5
			c0.3,0.7-0.1,1.1-0.6,1.3c-0.3-0.8-0.7-1.6-1-2.3c0.1-0.1,0.3-0.3,0.3-0.3c-0.2-0.7-0.5-1.3-0.7-1.9
			C89.7,41.3,89.8,40.9,89.8,40.3z M87.6,39.2c0.1,0.1,0.1,0.2,0.2,0.3c0.5-0.2,1.3-0.4,1.3-0.6c0.1-0.7-0.2-1.5-0.3-2.2
			c-0.1,0-0.2,0-0.3,0C88.2,37.5,87.9,38.4,87.6,39.2z"/>
		<path fill="#2980B9" d="M115.2,42.5c1-1.1,2-2.2,2.9-3.4c0.2-0.3,0.2-0.7,0.2-1.1c0-1,0-2.1,0-3.1c0.4-0.1,0.7-0.1,1.2-0.2
			c0.1,0.2,0.2,0.5,0.3,0.9c0.1-0.1,0.2-0.3,0.5-0.5c0,0.7,0,1.3,0,1.9c-0.2,2.3-0.3,4.7-0.5,7c0,0.5-0.4,1-0.6,1.5
			c-0.1,0-0.2-0.1-0.3-0.1c0-0.4,0-0.7,0-1.1c-0.1,0-0.1,0-0.2,0c-0.1,0.2-0.2,0.4-0.3,0.6c0,0-0.1-0.1-0.1-0.1
			c0-1.2-0.3-1.4-1.4-0.9c-0.7,0.3-1.4,0.8-2.2,0.4c-0.4-0.2-1-0.4-1.1-0.8c-0.3-1.2-0.6-2.4-0.6-3.6c0-1.4,0.3-2.9,0.7-4.3
			c0,0.4-0.1,0.7-0.1,1.1c0,0,0.1,0,0.1,0c0.3-0.7,0.6-1.5,0.9-2.2c0.1,0,0.2,0,0.3,0.1c0,0.3,0.1,0.6,0.2,1.1
			c0.2-0.3,0.3-0.4,0.6-0.7c-0.3,2.6-1.5,5-0.7,7.5C115,42.4,115.1,42.4,115.2,42.5z"/>
		<path fill="#2980B9" d="M122.9,40.6c-0.2,1.3-0.4,2.5-0.6,3.9c-0.3-0.1-0.5-0.3-0.7-0.3c-0.8,0.3-0.9-0.4-0.9-0.8
			c0.1-1.1,0.3-2.2,0.6-3.3c0.3-1.2,0.8-2.4,1.2-3.7c-0.4,0-0.7,0-1.2,0c0.3-0.2,0.5-0.3,0.7-0.4c-0.3-0.1-0.6-0.3-0.9-0.4
			c1.7-1.4,3.4-1.7,5.2-0.8c1.2,0.6,1.5,2,0.7,3.1c-0.2,0.3-0.4,0.6-0.5,1c0.3-0.2,0.6-0.4,1-0.7c-0.4,1-1,1.6-1.8,1.9
			c-0.6,0.2-0.7,0.5-0.3,1c1,1.1,2,2.3,2.9,3.5c0.3,0.3,0.3,0.8,0.4,1.3c-0.6,0.6-1.2,0.3-1.6-0.2c-1.1-1.3-2.2-2.6-3.2-3.9
			c-0.3-0.4-0.4-0.8-0.7-1.2C123.1,40.6,123,40.6,122.9,40.6z M123.2,39c1.2-0.6,2.2-1.1,2.9-2c0.2-0.2,0.2-0.6,0.2-0.8
			c0-0.1-0.1-0.3-0.2-0.3c-0.5-0.1-1-0.2-1.4-0.1c-0.3,0-0.8,0.2-0.8,0.5C123.6,37,123.5,37.9,123.2,39z"/>
		<path fill="#2980B9" d="M105,44.6c0,0.4,0.1,0.8,0.2,1.4c-0.5,0.7-1.1,0.1-1.5-0.3c-1.3-1.2-2.5-2.4-3.3-4.1
			c-0.2-0.3-0.3-0.7-0.5-1c-0.1,0-0.2,0-0.3,0c-0.2,1.3-0.4,2.6-0.6,3.8c-0.3,0-0.7,0.1-0.8-0.1c-0.3-0.3-0.8-0.7-0.7-1
			c0.2-1.1,0.5-2.3,0.8-3.4c0.3-1.2,0.6-2.4,0.9-3.6c-0.3,0-0.6,0-1.1,0c0.3-0.2,0.4-0.3,0.6-0.4c-0.3-0.1-0.6-0.3-1-0.5
			c1.5-1.1,3.1-1.6,4.8-0.9c1.6,0.6,2,2,1,3.5c-0.2,0.3-0.4,0.6-0.5,1c0.3-0.2,0.6-0.4,1.1-0.8c-0.5,1-1,1.6-1.8,1.9
			c-0.5,0.2-0.8,0.4-0.4,0.9c0.8,1,1.5,2,2.3,3C104.4,44.3,104.7,44.4,105,44.6L105,44.6z M99.8,38.8c0.1,0.1,0.2,0.2,0.3,0.2
			c0.9-0.6,1.8-1.3,2.6-2c0.2-0.1,0.1-0.8-0.1-0.9c-0.4-0.3-0.9-0.4-1.3-0.4c-0.3,0-0.7,0.2-0.8,0.4C100.2,37,100,37.9,99.8,38.8z"
			/>
		<path fill="#2980B9" d="M64.1,36.3c0.4,0,0.8,0.1,1.2,0.1c0,0,0,0.1,0,0.1c-0.5,0.1-1.1,0.1-1.4,0.4c-0.3,0.3-0.3,1-0.4,1.6
			c1.5,0.3,3-0.7,4.3,0.5c-0.8,0.7-1.8,0.7-2.7,0.9c-0.3,0.1-0.5,0.1-0.8,0.1c-0.9,0-1.7,0.2-1.8,1.3c0-0.2-0.1-0.3-0.1-0.5
			c0,0-0.1,0-0.1,0c-0.1,0.5-0.2,1-0.3,1.6c2-0.1,3.9-0.3,5.8-0.4c0.3,1.2-0.5,1.3-1.4,1.3c0.3,0.2,0.5,0.3,0.8,0.5
			c-2,0.3-3.9,0.6-5.8,0.8c-0.7,0.1-0.2-1.1-0.6-1.8c-0.4-0.9,0.3-2.1,0.4-3.2c0.1-1.1,0.5-1.8,0.7-2.8c0.1-0.7,0.2-1.5,0.3-2.4
			c1.8,0,3.5,0,5.2,0c0.3,0,0.5,0.3,0.8,0.5c-0.3,0.3-0.5,0.7-0.8,0.8c-0.8,0.1-1.6,0.1-2.4,0.2c-0.3,0-0.6,0.1-0.9,0.1
			C64.1,36.1,64.1,36.2,64.1,36.3z"/>
		<path fill="#2980B9" d="M105,44.6c0-0.5-0.2-1.5-0.1-2c0.1-0.6,0.1-1.2,0-1.8c-0.1-1.6,0.6-2.8,1.1-4.4c0.2-0.6,0.1-1.3,0.2-2.2
			c1.8,0,3.6,0,5.4,0c0.2,0,0.5,0.3,0.7,0.5c-0.2,0.3-0.4,0.7-0.7,0.8c-0.8,0.1-1.6,0.1-2.4,0.2c-0.3,0-0.7,0.1-1,0.1
			c0,0.1,0,0.2,0,0.3c0.4,0,0.8,0.1,1.5,0.2c-0.7,0.2-1.3,0.1-1.6,0.4c-0.3,0.3-0.3,1-0.4,1.5c1.5,0.3,3-0.7,4.4,0.6
			c-0.7,0.2-1.2,0.5-1.8,0.6c-0.6,0.2-1.2,0.3-1.9,0.3c-1,0-1.5,0.4-1.8,1.4c0-0.2-0.1-0.4-0.1-0.5c0,0-0.1,0-0.1,0
			c-0.1,0.5-0.2,1-0.3,1.6c2-0.1,3.9-0.3,5.8-0.4c0.3,1.3-0.5,1.2-1.4,1.3c0.3,0.2,0.5,0.3,0.9,0.5C109.1,44.1,107,44.3,105,44.6
			C105,44.6,105,44.6,105,44.6z"/>
		<path fill="#2980B9" d="M131.4,38c1.1,0.9,2.2,1.6,3.2,2.4c0.7,0.6,0.6,1.2,0.1,1.9c-1,1.4-2.3,2.4-4.3,2.4
			c0.4,0.2,0.6,0.2,0.7,0.3c-0.9,0.3-2.7-0.9-2.6-1.8c0-0.1,0.3-0.4,0.5-0.4c1.3,0.1,2.5-0.3,3.5-1c1-0.7,0.9-1.3-0.2-1.7
			c-0.6-0.2-1.3-0.5-2-0.5c-0.9-0.1-1.7-0.6-1.6-1.3c0-0.8,0.6-1.6,1.2-2.2c0.5-0.6,1.2-0.9,1.9-1.3c0.4-0.2,0.9-0.4,1.3-0.3
			c0.8,0.2,1.7,0.5,2.3,0.7c0,0.4,0.1,0.7,0,0.8c-0.1,0.2-0.4,0.4-0.7,0.4C133.3,36.6,132.2,37.1,131.4,38z M130.7,37.6
			c1.1-0.6,2.1-1.1,3.2-1.7c0-0.1-0.1-0.1-0.1-0.2C132.6,36.1,131.5,36.6,130.7,37.6z"/>
		<path fill="#2980B9" d="M76,36.2c-2.2-0.3-3.8,0.5-5,2.2c-0.9,1.3-0.5,2.7-0.3,4c2.1,1,3.2-0.6,4.5-1.7c0.7,0.8,0,1.2-0.4,1.6
			c-0.4,0.4-0.9,0.8-1.3,1.4c0.4-0.2,0.8-0.3,1.1-0.5c0,0,0,0.1,0.1,0.1c-0.3,0.2-0.7,0.4-1,0.6c-0.5,0.2-1,0.6-1.5,0.6
			c-0.7-0.1-1.4-0.4-2.1-0.7c0,0.1,0.1,0.3,0.2,0.7c-0.9-0.5-1.4-1.1-1.5-1.9c-0.1-0.7-0.2-1.4-0.2-2.1c0-1.6,0.2-3.1,1.7-4.1
			c0.7-0.5,1.3-1.2,2.1-1.7C73.5,34.1,75.2,34.8,76,36.2z"/>
		<path fill="#2980B9" d="M95.1,45.3c-0.8,0-0.7-0.4-0.9-0.9c-0.6-1.5,0-2.9,0-4.3c0-0.8,0.1-1.7,0.4-2.3c0.6-1.1,0.2-2.2,0.6-3.3
			c0.2,0,0.5-0.1,0.7,0c0.8,0.1,1.1,0.5,0.9,1.3c-0.8,2.6-1,5.2-1,7.9C95.8,44.2,95.3,44.8,95.1,45.3z"/>
		<path fill="#2980B9" d="M66.5,30.6c0.3,1.3-1.1,1.6-1.4,2.6C64.5,32.5,65,31.6,66.5,30.6z"/>
	</g>
	<g>
		<path fill="#2980B9" d="M64.7,27.5c0.1-0.4,0.3-0.7,0.4-1.1c0.4-1.5,0.9-3,1.3-4.5c0.1-0.2,0.3-0.5-0.1-0.7c0,0-0.2-0.3,0.2-0.3
			c0.3,0.1,0.6,0,0.9,0c0.2,0.1,0.4,0.3,0.2,0.6c-0.1,0.1,0,0.2,0,0.3c0.1-0.1,0.2-0.2,0.2-0.3c0.1-0.1,0-0.2,0.1-0.3
			c0-0.1,0.1-0.1,0.2-0.1c0,0,0.1,0.1,0.1,0.1c0,0.2,0,0.4-0.1,0.6c-0.6,2-1.1,3.9-1.7,5.9c-0.2,0.9-0.5,1.7-0.7,2.6
			c-0.1,0.2-0.1,0.5-0.5,0.4c-0.1,0-0.3,0-0.3,0.1c-0.2,0.5-0.6,0.2-0.9,0.2c-0.1,0-0.2-0.1-0.2-0.2c-0.5-0.9-0.7-1.9-0.8-3
			c0-0.1,0-0.2,0-0.2c0,0-0.1-0.1-0.1-0.1c-0.1,0-0.2,0-0.2,0.1c-0.1,0.2-0.2,0.4-0.3,0.7c-0.3,0.7-0.5,1.4-0.8,2.1
			c-0.1,0.2-0.3,0.5-0.4,0.7c-0.1,0.2-0.3,0.3-0.4,0c0,0-0.1,0-0.2,0c-0.7,0.3-0.9,0.2-1.3-0.4c-0.1-0.2-0.2-0.5-0.3-0.8
			c0-0.1,0-0.2,0-0.2c0.6-0.1,0.3-0.5,0.3-0.7c-0.1-0.7-0.1-1.4,0-2.1c0.1-0.9,0.1-1.8,0.1-2.7c0-0.8,0-1.6,0-2.3
			c0-0.2-0.1-0.4,0.2-0.5c0.2-0.1,0.4,0,0.4,0.3c0,0.1,0.2,0.2,0.2,0.2c0.6-0.3,0.4,0.2,0.4,0.5c0,1.4,0,2.7,0,4.1
			c0,0.1,0,0.2,0,0.3c0.1,0.5,0.2,1-0.1,1.4c0,0,0.1,0.1,0.1,0.2c0,0,0.1,0,0.1-0.1c0.1-0.1,0.1-0.2,0.2-0.4c0.4-1,0.7-2,1-3
			c0.1-0.3,0.3-0.5,0-0.8c0,0,0.1-0.2,0.1-0.2c0.5,0.1,1.1-0.2,1.6,0.1c0.2,0.1,0.4,0.2,0.4,0.4c0.1,0.4,0.1,0.9,0.2,1.3
			c0.1,0.4,0.1,0.9,0.4,1.2c0.1,0.1,0.1,0.3,0.1,0.5C64.6,27.5,64.6,27.5,64.7,27.5z M60.5,30.7c0.7-0.9,1.3-2,1.6-3.1
			c0.1-0.4,0.4-0.8,0.2-1.4C61.5,27.7,61,29.2,60.5,30.7z"/>
		<path fill="#2980B9" d="M75.5,28.4c0-0.4,0-0.6-0.1-0.9c0,0-0.1,0-0.1,0c-0.1,0.4-0.2,0.8-0.2,1.2c0,0.3,0.1,0.4,0.4,0.4
			c0.7-0.1,1.4-0.2,2.1-0.2c0.8-0.1,1.6-0.1,2.4-0.1c0.2,0,0.5,0,0.5,0.3c0,0.3,0,0.7-0.4,0.8c-0.3,0.1-0.6,0.1-1.1,0.2
			c0.3,0.1,0.5,0.2,0.9,0.3c-0.9,0.1-1.6,0.3-2.4,0.4c-1,0.1-2,0.3-3,0.4c-0.2,0-0.4,0-0.6-0.1c-0.1,0-0.2-0.2-0.2-0.2
			c0.1-0.4,0-1.2,0-1.5c0-1.3,0.5-0.6,0.4-1.2c0-0.1-0.1-0.9,0-1c0.1-0.1,0.3,0.2,0.3,0c-0.2-0.8,0-1.6,0.1-2.4
			c0.2-0.9,0.3-1.8,0.4-2.8c0-0.1,0-0.2,0.2-0.2c1.5,0,3-0.1,4.6-0.1c0.1,0,0.1,0,0.2,0c0.4,0,0.8,0.3,0.8,0.5
			c0,0.4-0.3,0.8-0.7,0.8c-0.7,0.1-1.5,0.1-2.2,0.1c-0.3,0-0.7-0.1-0.9,0.2c0.2,0.4,0.6,0.1,0.9,0.2c0.1,0,0.2,0,0.2,0
			c0.1,0,0.1,0.1,0.1,0.1c0,0-0.1,0.1-0.1,0.1c-0.3,0-0.6,0-0.9,0c-0.3,0-0.5,0.1-0.5,0.4c-0.1,0.4-0.1,0.7-0.1,1.1
			c0,0.1,0.1,0.2,0.2,0.2c0.3,0,0.7,0,1,0c0.4,0,0.8-0.1,1.2-0.1c0.2,0,0.5-0.1,0.7,0c0.2,0,0.3,0.2,0.4,0.3
			c0.1,0.1,0.2,0.1,0.4,0.2c-0.1,0.1-0.2,0.3-0.4,0.3c-0.4,0.2-0.8,0.3-1.2,0.4c-0.8,0.1-1.7,0.3-2.5,0.4c-0.2,0-0.3,0.1-0.4,0.3
			C75.8,27.6,75.7,27.9,75.5,28.4z"/>
		<path fill="#2980B9" d="M74.1,25.9c-0.3,0.1-0.7,0.1-1,0.2c-0.2,0-0.3,0.1-0.5,0.1c-0.3,0.1,0,0.2,0,0.3c-0.2,0-0.5,0-0.7,0
			c0,0,0-0.1,0-0.1c0-0.3,0-0.3-0.2-0.2c-0.4,0.1-0.8,0.1-1.1,0.4c-0.2,0.2-0.3,0.1-0.8-0.1c-0.2-0.1-0.5-0.1-0.7-0.2
			c-0.1,0-0.2-0.1-0.3-0.2c0.1,0,0.2,0,0.3-0.1c0.1,0,0.1-0.2,0.1-0.2c-0.1-0.3-0.3-0.4-0.5-0.5c-0.1,0-0.1-0.1-0.2-0.2
			c0.1-0.1,0.1-0.2,0.2-0.2c0.6-0.2,1.2-0.3,1.9-0.2c0.4,0.1,0.8,0.1,1.2,0.1c0.3,0,0.5,0,0.8,0.2c0.1,0.1,0.4,0.1,0.6,0.1
			c0.2,0,0.4-0.1,0.7-0.1c0,0,0.1,0.1,0.1,0.1C73.5,25.4,74.1,25.5,74.1,25.9z"/>
	</g>
</g>
<g id="Calque_2">
	<g>
		<path fill="#C0392B" d="M46.8,22.9c0.1,1.8,0,3.6-0.4,5.2c-0.4,1.7-1,3.4-1.9,5.1c-0.9,1.7-2,3.4-3.4,5.2
			c-1.4,1.7-3.1,3.6-5.1,5.5c-1.3,1.4-2.4,2.6-3.1,3.7c-0.8,1.1-1.4,2.2-1.8,3.2c-0.4,1-0.7,2-0.9,3c-0.2,1-0.3,2.1-0.4,3.2
			l-0.3,3.3l-7,0.5l-0.9-3c-0.1-0.5-0.3-1.1-0.4-1.9c-0.1-0.8-0.2-1.4-0.2-1.9c-0.2-2.5,0.3-5,1.5-7.2c1.2-2.3,3-4.5,5.5-6.8
			c1.6-1.5,2.9-2.9,4-4.2c1.1-1.3,2-2.6,2.7-3.8c0.7-1.2,1.1-2.5,1.4-3.8c0.2-1.3,0.3-2.7,0.2-4.3c-0.2-3-1.3-5.3-3.3-6.8
			c-2-1.5-4.6-2.1-7.8-1.9c-2.4,0.2-5.1,0.8-8,1.8c-2.9,1-5.7,2.5-8.4,4.3l-0.7-9.6c2.7-1.6,5.4-2.8,8.2-3.6C19.1,7.1,22,6.6,25,6.4
			c3.1-0.2,5.9,0,8.5,0.7c2.6,0.7,4.8,1.7,6.7,3.1c1.9,1.4,3.4,3.2,4.5,5.4C45.9,17.7,46.6,20.1,46.8,22.9z M20,73.1
			c-0.1-1,0.1-1.9,0.4-2.8c0.3-0.9,0.8-1.6,1.4-2.3c0.6-0.7,1.4-1.2,2.3-1.6C25,66,26,65.8,27,65.7c1-0.1,2,0,2.9,0.3
			c0.9,0.3,1.7,0.7,2.4,1.3c0.7,0.6,1.3,1.3,1.7,2.1c0.4,0.8,0.7,1.7,0.8,2.7c0.1,1-0.1,1.9-0.4,2.8c-0.3,0.9-0.8,1.7-1.4,2.4
			c-0.6,0.7-1.4,1.3-2.2,1.7C30,79.3,29,79.6,28,79.6s-2,0-3-0.3c-0.9-0.3-1.8-0.8-2.5-1.4c-0.7-0.6-1.3-1.3-1.7-2.1
			C20.4,75,20.1,74.1,20,73.1z"/>
		<path fill="#4C1212" d="M46.8,22.9l-0.9,0.1c0,0.4,0,0.9,0,1.3c0,1.3-0.1,2.5-0.4,3.7l0,0c-0.3,1.6-0.9,3.2-1.8,4.8l0,0
			c-0.9,1.6-2,3.3-3.3,5l0,0c-1.4,1.7-3,3.5-5,5.4l0,0l0,0c-1.3,1.4-2.4,2.6-3.2,3.8l0,0c-0.8,1.2-1.4,2.3-1.9,3.4l0,0
			c-0.5,1.1-0.8,2.2-1,3.2l0,0c-0.2,1-0.3,2.1-0.4,3.2l0,0l-0.2,2.5l-5.5,0.4l-0.7-2.3l0,0c-0.1-0.4-0.3-1.1-0.4-1.8
			C22.1,55,22,54.3,22,53.9l0,0c0-0.3,0-0.6,0-0.9c0-2,0.5-3.9,1.4-5.8l0,0l0,0c1.1-2.1,2.9-4.3,5.3-6.6l0,0l0,0
			c1.6-1.5,2.9-3,4-4.3l0,0c1.1-1.3,2-2.7,2.8-4l0,0l0,0c0.7-1.3,1.2-2.7,1.5-4.1l0,0c0.2-1,0.3-2,0.3-3.1c0-0.5,0-1-0.1-1.5l0,0
			c-0.1-1.6-0.5-3-1.1-4.3c-0.6-1.3-1.5-2.3-2.6-3.1l0,0c-1.9-1.4-4.3-2.1-7.1-2.1c-0.4,0-0.9,0-1.3,0l0,0c-2.5,0.2-5.3,0.8-8.2,1.9
			l0,0c-3,1.1-5.9,2.6-8.6,4.5l0.5,0.8l0.9-0.1L9,11.5l-0.9,0.1l0.5,0.8c2.6-1.5,5.3-2.7,8-3.5l0,0c2.7-0.8,5.6-1.3,8.5-1.5l0,0l0,0
			c0.8-0.1,1.5-0.1,2.2-0.1c2.2,0,4.2,0.2,6,0.7l0,0c2.5,0.6,4.6,1.6,6.4,3l0,0c1.8,1.3,3.2,3,4.3,5l0,0c1.1,2,1.7,4.3,1.9,7l0,0
			L46.8,22.9l0.9-0.1c-0.2-2.9-0.9-5.5-2.1-7.7l0,0l0,0c-1.2-2.3-2.8-4.2-4.8-5.7l0,0c-2-1.5-4.4-2.6-7.1-3.3l0,0
			c-2-0.5-4.2-0.8-6.5-0.8c-0.8,0-1.5,0-2.3,0.1l0,0c-3.1,0.2-6,0.8-8.9,1.6l0,0c-2.9,0.9-5.7,2.1-8.4,3.7l-0.5,0.3L8,22.9L9.3,22
			c2.7-1.8,5.4-3.2,8.2-4.2l0,0c2.8-1,5.4-1.6,7.7-1.8l0,0l0,0c0.4,0,0.8,0,1.2,0c2.5,0,4.5,0.6,6,1.8l0,0c0.9,0.7,1.5,1.5,2,2.5
			c0.5,1,0.8,2.2,0.9,3.6l0,0c0,0.5,0,0.9,0,1.3c0,1-0.1,1.9-0.2,2.7l0,0c-0.2,1.2-0.6,2.4-1.3,3.5l0,0c-0.6,1.2-1.5,2.4-2.5,3.6
			l0,0c-1.1,1.3-2.4,2.7-3.9,4.2l0.6,0.7l-0.6-0.7c-2.5,2.3-4.4,4.7-5.7,7.1l0,0l0,0c-1.1,2.1-1.6,4.3-1.6,6.6c0,0.4,0,0.7,0,1.1
			l0,0c0,0.6,0.1,1.2,0.2,2c0.1,0.8,0.2,1.5,0.4,2l0,0l1.1,3.7l8.6-0.6l0.3-4.1L29.8,57l0.9,0.1c0.1-1.1,0.2-2.1,0.4-3.1l0,0
			c0.2-0.9,0.4-1.9,0.8-2.8l0,0c0.4-1,1-2,1.7-3l0,0c0.7-1.1,1.7-2.3,3-3.6l-0.7-0.6l0.6,0.7c2-1.9,3.7-3.8,5.1-5.6l0,0
			c1.4-1.8,2.6-3.6,3.5-5.3l0,0c0.9-1.8,1.6-3.5,2-5.3l0,0c0.3-1.3,0.4-2.7,0.4-4c0-0.5,0-1-0.1-1.5l0,0L46.8,22.9z M20,73.1
			l0.9-0.1c0-0.2,0-0.3,0-0.5c0-0.7,0.1-1.3,0.3-1.9l0,0c0.3-0.8,0.7-1.4,1.2-2c0.5-0.6,1.2-1,2-1.4l0,0c0.8-0.4,1.6-0.6,2.6-0.6
			c0.2,0,0.4,0,0.6,0c0.7,0,1.4,0.1,2,0.3l0,0c0.8,0.3,1.5,0.6,2.1,1.1l0,0c0.6,0.5,1.1,1.1,1.5,1.8l0,0c0.4,0.7,0.6,1.4,0.7,2.3
			l0,0c0,0.1,0,0.3,0,0.4c0,0.7-0.1,1.3-0.3,1.9c-0.3,0.8-0.7,1.5-1.2,2.1c-0.5,0.6-1.2,1.1-1.9,1.5l0,0c-0.7,0.4-1.6,0.6-2.5,0.7
			c-0.2,0-0.4,0-0.5,0c-0.7,0-1.4-0.1-2.1-0.3l-0.1,0l0.1,0c-0.8-0.3-1.6-0.7-2.2-1.2l0,0c-0.6-0.5-1.1-1.1-1.5-1.9
			c-0.4-0.7-0.6-1.5-0.7-2.3L20,73.1l-0.9,0.1c0.1,1.1,0.4,2.1,0.9,3c0.5,0.9,1.2,1.7,1.9,2.4l0,0l0,0c0.8,0.7,1.7,1.2,2.8,1.5l0,0
			c0.9,0.3,1.7,0.4,2.7,0.4c0.2,0,0.4,0,0.7,0c1.1-0.1,2.2-0.4,3.2-0.9l0,0c1-0.5,1.8-1.1,2.5-1.9c0.7-0.8,1.2-1.7,1.6-2.6
			c0.3-0.8,0.5-1.7,0.5-2.6c0-0.2,0-0.4,0-0.6l0,0c-0.1-1.1-0.4-2.2-0.9-3.1l0,0l0,0c-0.5-0.9-1.2-1.7-2-2.3l0,0
			c-0.8-0.7-1.7-1.1-2.7-1.5l0,0c-0.8-0.3-1.7-0.4-2.6-0.4c-0.2,0-0.5,0-0.7,0c-1.1,0.1-2.2,0.4-3.2,0.8l0,0c-1,0.5-1.9,1.1-2.6,1.8
			c-0.7,0.8-1.2,1.6-1.6,2.6l0,0l0,0c-0.3,0.8-0.5,1.7-0.5,2.6c0,0.2,0,0.4,0,0.6L20,73.1z"/>
	</g>
	<g display="none">
		<path display="inline" fill="#3498DB" d="M86.6,17.2c1.1,1,0.8,2.2,0.9,3.3c0.1,0.9-0.1,1.9-0.2,2.8c-0.2,1.7-1,3.1-2.6,4
			c-1.1,0.6-2.4,1.2-3.5,1.8c-0.9,0.5-1.7,0.9-2.4,1.7c-1,1-2.5,1.7-4.2,1.6c-0.3-0.8-0.3-1.5,0.2-2.3c2.7-5.1,7-8.9,11.3-12.6
			C86.2,17.3,86.4,17.3,86.6,17.2z"/>
		<path display="inline" fill="#F9F9F9" d="M83.5,17.5c-2.6-2.5-3.7-5.2-3-8.4c0.3-1.7,1.3-2.9,3-3.6c0.7-0.3,1.4-0.5,2.2-0.8
			c1.6,1.9,2.4,4.1,2.5,6.5c0.1,1-0.4,1.9-1,2.6C85.9,15,84.8,16.2,83.5,17.5z"/>
		<path display="inline" fill="#3498DB" d="M71.2,5.4c0.4-0.7,0.6-1.4,1.1-2c1-1.3,2.3-2.1,4-2.5c2.1-0.5,4.2-0.5,6.3-0.4
			c1.4,0,2.7,0.1,4-0.2c1.4-0.3,2,0.9,3,1.4c0.1,0,0.1,0.2,0.1,0.3c-0.1,0.6-0.1,1.3-0.2,2c-0.8-0.1-1.5-0.2-2.3-0.3
			c-1.9-0.2-3.6,0.6-5.3,1c-1.5,0.4-3,0.8-4.5,1.1c-1.3,0.3-2.6,0.2-3.8-0.3C72.3,5.1,72.3,5.1,71.2,5.4z"/>
		<path display="inline" fill="#F9F8F8" d="M62.7,36.1c-1.4-0.5-1-1.3-0.7-2c-2.1-1.1-2.8-3.1-3.4-5.2c-0.6-2.1,0.1-4,0.9-5.9
			c0.5-1.1,1.8-1.3,2.9-0.4c1.2,0.9,1.9,2.2,2.3,3.6c0.3,1.2,0.3,2.5,0.4,3.7c0,0.3,0,0.6-0.2,0.9c-0.7,1.3-1.5,2.6-1.4,4.1
			C63.5,35.2,63,35.7,62.7,36.1z"/>
		<path display="inline" fill="#F8F8F8" d="M71.6,2.3c-0.3,0.4-0.7,0.8-0.9,1.3c-0.2,0.5-0.5,1.4-0.2,1.7c0.7,0.6,0.4,1.1,0,1.6
			C69.7,7.9,69,9,68.2,10c-1.1,1.5-2.3,2.9-3.5,4.4c-0.2-0.3-0.4-0.4-0.5-0.7c-2.6-5.3,0.4-10,5.3-11.5c0.6-0.2,1.3-0.2,1.9-0.3
			C71.5,2.1,71.5,2.2,71.6,2.3z"/>
		<path display="inline" fill="#F8F8F8" d="M74.1,28.2c-0.4,0.8-0.7,1.6-1.1,2.4c-0.2,0.5-0.3,0.8-0.1,1.3c0.6,1.5,2,2,3.5,1.3
			c0.6-0.3,1.3-0.6,1.9-0.9c0.3,1.1,0.3,1.7-0.4,2c-2.8,1.4-5.8,2.6-9,2.5c-0.6,0-1.2-0.2-1.8-0.3c0.7-4,2.8-6.9,6.6-8.3
			C73.8,28.1,74,28.1,74.1,28.2z"/>
		<path display="inline" fill="#3498DB" d="M64.8,41.3c-0.5,2-1.9,3.7-2.5,5.9c0.5-0.1,0.9-0.1,1.2-0.2c0.2-0.1,0.5-0.4,0.5-0.5
			c-0.4-1.2,0.5-2,1-2.9c0.2-0.3,0.3-0.7,0.4-1c0.1,0.1,0.2,0.2,0.3,0.3c0.1,0.2,0.2,0.4,0.1,0.5c-0.5,2-0.1,4.3-1.4,6.2
			c-0.8,0.4-1.2-0.8-2-0.8c-0.1,0.6-0.1,1.1,0.5,1.6c2,1.8,2.2,4,1.3,6.3c-0.3,0.7-0.3,1.5-0.9,2.1c-1.3-2.1-1.6-4.4-2.1-6.6
			c-0.2-1-0.3-2-0.4-3c0-0.4-0.1-1,0.1-1c0.9-0.4-0.1-0.7,0-1.1c0.1-0.4,0-0.8,0.1-1.2c0.1-0.4,0.4-0.8,0.7-1.2
			c0.9-1.3,1.9-2.5,2.8-3.8C64.5,41.1,64.6,41.2,64.8,41.3z"/>
		<path display="inline" fill="#3498DB" d="M65.3,24.5c-0.5-0.6-0.9-0.9-1.2-1.4c-0.5-0.9-1.3-1.5-2-2.2c-1-1-1.9-2-2.4-3.4
			C59,15.5,60,14,61.5,12.9c0.5-0.4,1.1-0.2,1.2,0.5c0.1,0.8,0.8,1.3,1.2,1.9c0.8,1.7,2,3.2,2.4,5C66.6,21.7,65.9,23,65.3,24.5z"/>
		<path display="inline" fill="#3498DB" d="M57.7,40.5c0.8-0.2,1.4-1.7,2.7-0.3c-0.7,1-1.5,2-2.3,2.9c-0.4,0.5-1.1,0.7-1.8,0.4
			c-1.3-0.6-2.7-0.8-3.9-1.6c-1-0.7-2.3-0.8-3.8-1.3c1.5-0.5,2.8-0.7,4-1.2c1.2-0.5,2.4-0.1,3.6,0C56.8,39.4,57.3,40.1,57.7,40.5z"
			/>
		<path display="inline" d="M88.2,17.5c-0.3-0.7-0.4-1.2-0.2-1.7c0.1-0.4,0.4-0.7,0.8-1c0.4-0.3,0.7-0.6,0.8-1
			c0.1-0.4,0.1-0.8,0.1-1.2c-0.2-1.5-0.2-3.1-0.3-4.8C89.6,7.9,89.7,8,89.8,8C89.9,8.1,90,8.1,90,8.2c0,0.1,0,0.2,0,0.3
			c0,0.1,0,0.3,0,0.4c0.2,0.3,0.5,0.4,0.7,0.6l0.1,0.1l0-0.1c0.1-0.2,0.3-0.4,0.3-0.6c0-0.1,0-0.1,0-0.2c0-0.5-0.2-1-0.4-1.4
			c-0.3-0.6-0.3-1.2-0.1-1.8c0-0.1,0.1-0.1,0.1-0.2C90.9,5.2,90.9,5,91,4.8c0-0.1,0.1-0.3,0.1-0.4c0.2-1.2,0.2-2.4-0.2-3.4
			c-0.4-1-1.1-1.8-2.3-2.2c-0.3-0.1-0.7-0.2-1.2-0.2c-1.6-0.2-3.2-0.2-4.8,0c-2.3,0.3-4.5,1-6.8,1.5c-0.8,0.2-1.7,0.3-2.4,0.2
			c-1.8-0.4-3.5-0.2-5.1,0.6c-2.6,1.2-4.6,2.9-5.4,5.5c-0.1,0.3-0.2,0.7-0.3,1c-0.2,1.2-0.2,2.4-0.2,3.8c-2,0.3-3.3,1.7-4.2,3.4
			c-0.1,0.3-0.2,0.5-0.3,0.8c-0.3,0.8-0.2,1.7,0.6,2.4c0.7,0.6,0.7,1.3,0.5,2.1l0,0.1c0,0.1-0.1,0.2-0.1,0.3
			c-0.1,0.4-0.2,0.8-0.4,1.2c-0.1,0.2-0.2,0.5-0.3,0.7c-0.1,0.3-0.3,0.7-0.4,1c-0.7,2.3-0.7,4.6-0.5,6.9c0.1,1.1,0.4,2.2,1.2,3
			c0.6,0.6,0.7,1.2,0.5,2c0,0.1,0,0.1-0.1,0.2c-0.1,0.2-0.1,0.4-0.2,0.6c-0.3,0.8-0.5,1.7-0.8,2.7c-0.4-0.2-0.9-0.4-1.3-0.5
			c-1-0.3-1.9-0.4-3-0.2c-2.1,0.5-4.1,1.2-6.2,1.9c-0.5,0.2-0.7,0.4-0.8,0.7c-0.1,0.4,0.1,0.9,0.6,1.2c0.6,0.4,1.2,0.8,1.8,1
			c0.1,0,0.2,0,0.2,0.1c0.2,0.1,0.4,0.1,0.6,0.2c1.1,0.3,2.1,0.8,3.2,1.2c0.1,0,0.2,0.1,0.4,0.1c1.3,0.4,2.6,0.6,4,0.7
			c0.4,0.1,0.8,0,1.1-0.1c0.3-0.2,0.6-0.5,0.8-0.9c0.5-1.1,1.3-2.1,1.9-3.2c0.1-0.2,0.2-0.3,0.4-0.3c0.1,0,0.3,0,0.4,0
			c0.1,0,0.3,0.1,0.4,0.2c0.2,0.1,0.2,0.2,0.3,0.3c0,0.1,0,0.2,0,0.3c0,0.1-0.1,0.1-0.1,0.2c-0.2,0.4-0.4,0.8-0.7,1.2
			c-0.7,0.9-1.4,1.8-2.1,2.7c-0.4,0.5-0.8,1.1-1,1.7c-0.2,0.7-0.2,1.5,0.2,2.3c0.2,0.3,0.2,0.7,0.3,1c1,3.6,2,7.1,3,10.7
			c0.1,0.2,0.1,0.5,0.2,0.8c0.1,0.3,0.3,0.5,0.5,0.6c0.1,0,0.3,0.1,0.5,0c0.4-0.1,0.6-0.3,0.7-0.6c0.1-0.4,0.1-0.8,0.1-1.1
			c0.1-0.8,0-1.7,0.1-2.5c0.4-2.3,1.3-4.6,1.2-7c0,0,0-0.1,0-0.2c0-0.1,0.1-0.2,0.1-0.3c0.2-0.4,0.4-0.9,0.6-1.4
			c0.3-0.9,0.4-1.8,0.3-2.8c-0.1-0.6,0.2-1.2,0.1-1.8c0-0.6,0-1.2,0.2-1.7c0.4-1.1,1.2-1.9,2.7-2.2c0.2,0,0.3-0.2,0.5-0.2
			c0.6-0.2,1-0.5,1.2-1.1c0.1-0.2,0.1-0.5,0.1-0.9c0-0.2,0-0.4,0-0.6c0.1-0.4,0.5-0.6,1.1-0.8c1.3-0.3,2.5-0.9,3.7-1.2
			c1.7-0.4,2.7-1.4,3.2-2.9c0.1-0.3,0.2-0.5,0.2-0.8c0-0.1,0-0.2,0.1-0.3c0.2-0.6,0.6-1,1.2-1.3c1.4-0.7,2.9-1.4,4.3-2.2
			c1.4-0.7,2.2-1.9,2.8-3.4c0.1-0.3,0.2-0.5,0.3-0.8C89.4,22.1,89.2,19.8,88.2,17.5z M63.7,57.8c-0.1,0.4-0.3,0.7-0.5,1
			c-1.2-2-1.5-4.3-2.1-6.5c-0.2-1-0.3-2-0.4-3c0-0.3-0.1-0.7,0-0.9l0,0l0,0c0.3-0.1,0.4-0.2,0.4-0.3c0-0.1,0-0.2,0-0.2
			c-0.1-0.1-0.2-0.2-0.2-0.3c-0.1-0.1,0.1-0.1,0.1-0.2c0.1-0.4,0.1-0.8,0.2-1.2l0,0c0.1-0.4,0.3-0.9,0.5-1.2
			c0.9-1.2,1.8-2.5,2.7-3.7c0.1,0.1,0.2,0.1,0.3,0.2c0,0.1-0.1,0.2-0.1,0.3c-0.6,1.7-1.7,3.3-2.3,5.2c0,0.1-0.1,0.2-0.1,0.3l0,0.1
			l0.1,0c0.5-0.1,0.9-0.1,1.2-0.2c0.1,0,0.2-0.1,0.3-0.2c0.1-0.1,0.2-0.2,0.2-0.3l0-0.1c-0.1-0.4-0.1-0.8,0-1.2
			c0.2-0.6,0.6-1.1,0.9-1.7c0.2-0.3,0.3-0.6,0.4-0.9c0.1,0.1,0.2,0.2,0.2,0.2c0.1,0.2,0.2,0.4,0.1,0.5c-0.4,1.6-0.2,3.3-0.8,4.9
			c-0.1,0.4-0.3,0.9-0.6,1.3c-0.2,0.1-0.3,0.1-0.5,0c-0.4-0.1-0.7-0.6-1.3-0.8c-0.1,0-0.2,0-0.3-0.1l-0.1,0l0,0.1
			c-0.1,0.6-0.1,1.2,0.5,1.7c1.8,1.7,2.1,3.6,1.4,5.8c0,0.1-0.1,0.3-0.1,0.4c0,0.1,0,0.1-0.1,0.2C63.9,57.2,63.8,57.5,63.7,57.8z
			 M63.6,38.3c0.1,0,0.2,0,0.4,0h0h0c0.6,0,1.1-0.1,1.7-0.2c0.4,0,1.1,0.3,1.1-0.1l0.2,0v0c1,0.1,0.3,0,0.4,0
			c-0.2,0.1-0.3,0.2-0.5,0.4c-0.3,0-0.5,0.1-0.8,0.1c-0.7,0-1.5,0-2.2,0C63.8,38.4,63.7,38.3,63.6,38.3z M59.9,37.8
			c0.2,0.2,0.5,0.5,0.8,0.7c-0.2,0-0.3,0-0.4,0c-0.2,0-0.3-0.1-0.3-0.3C59.9,38.2,59.9,38,59.9,37.8z M57.8,40.5
			c0.4-0.1,0.6-0.4,0.9-0.6c0.3-0.2,0.6-0.4,1-0.3c0.2,0.1,0.4,0.2,0.7,0.5c-0.7,1-1.4,2-2.2,2.9c-0.4,0.4-0.9,0.6-1.5,0.4
			c-0.1,0-0.1,0-0.2-0.1c-1.3-0.6-2.7-0.8-3.9-1.6c-0.4-0.3-0.8-0.4-1.3-0.6c-0.7-0.2-1.5-0.4-2.3-0.6c1.4-0.4,2.7-0.7,3.8-1.1
			c1.2-0.5,2.4-0.1,3.6,0c0,0,0.1,0,0.1,0C56.8,39.6,57.3,40.1,57.8,40.5L57.8,40.5L57.8,40.5z M60.9,36.2L60.9,36.2
			c-0.3-0.1-0.5-0.1-0.6-0.3c-0.1-0.2-0.1-0.4-0.1-0.7c0.4,0.5,0.8,0.8,1.1,1.1l0.1,0h0c0.2,0,0.3,0.4,0.5,0.6
			c0.2,0.2,0.3,0.4,0.5,0.7c-0.2,0-0.5,0-0.6,0c-0.2-0.1-0.3-0.2-0.4-0.4l0,0l0,0c-0.2-0.2-0.3-0.5-0.5-0.7L60.9,36.2z M59.6,23
			c0.3-0.8,1.1-1.1,1.9-0.8c0.3,0.1,0.6,0.2,0.8,0.5c1.2,0.9,1.9,2.1,2.3,3.5c0.3,1.2,0.3,2.5,0.4,3.7c0,0.2,0,0.4-0.1,0.6
			c0,0.1-0.1,0.1-0.1,0.2c-0.4,0.8-0.9,1.5-1.1,2.4c-0.2,0.6-0.3,1.2-0.3,1.8c0,0.1,0,0.1,0,0.2c-0.1,0.3-0.5,0.7-0.7,1
			c-0.5-0.2-0.8-0.4-0.9-0.6c-0.1-0.2-0.1-0.5,0-0.8c0.1-0.2,0.1-0.3,0.2-0.5l0-0.1l0,0c-2-1.1-2.8-3.1-3.3-5.2
			c-0.4-1.5-0.2-2.8,0.2-4.1C59.1,24.1,59.3,23.5,59.6,23z M71.4,2.1c0.1,0,0.2,0,0.3,0c-0.1,0.1-0.1,0.2-0.2,0.3
			c-0.3,0.4-0.7,0.8-0.9,1.3c0,0.1-0.1,0.2-0.1,0.4c-0.1,0.3-0.2,0.5-0.2,0.8c0,0.2,0,0.5,0.1,0.6c0.4,0.4,0.5,0.7,0.4,0.9
			c-0.1,0.2-0.2,0.4-0.3,0.6c-0.8,1-1.5,2.1-2.3,3.2c-1.1,1.4-2.2,2.8-3.4,4.4c-0.2-0.2-0.4-0.4-0.5-0.6c-1.1-2.2-1.2-4.3-0.6-6
			c0.8-2.5,3-4.5,5.9-5.4C70.1,2.2,70.8,2.2,71.4,2.1z M89.5,1.7C89.5,1.7,89.6,1.7,89.5,1.7c0,0.2,0.1,0.2,0,0.3
			c-0.1,0.6-0.1,1.2-0.2,1.9c-0.8-0.1-1.5-0.2-2.2-0.3c-1.9-0.2-3.6,0.6-5.4,1c-1.5,0.4-3,0.8-4.5,1.1C76.2,6,75,5.9,73.8,5.5
			c-0.1,0-0.2-0.1-0.3-0.1c-0.2-0.1-0.4-0.1-0.5-0.2c-0.7-0.2-0.9-0.2-1.7,0c0.3-0.7,0.6-1.3,1-1.8c1-1.3,2.3-2.1,3.9-2.5
			c2.1-0.5,4.2-0.5,6.3-0.4c1.4,0,2.7,0.1,4-0.2c0.4-0.1,0.7-0.1,1,0C88.3,0.6,88.8,1.3,89.5,1.7z M80.9,6.2
			C80.9,6.2,80.9,6.2,80.9,6.2C80.9,6.2,80.9,6.2,80.9,6.2C80.9,6.2,80.9,6.2,80.9,6.2z M87,13.7c-1.1,1.2-2.3,2.4-3.6,3.7
			c-2.5-2.5-3.6-5.1-2.9-8.3c0-0.2,0.1-0.4,0.2-0.6c0.4-1.4,1.4-2.3,2.8-2.9c0.7-0.3,1.4-0.5,2.2-0.8c1.6,1.9,2.3,4.1,2.5,6.4
			c0,0.4,0,0.8-0.1,1.1C87.7,12.8,87.4,13.3,87,13.7z M62.2,12.7c0.2,0.1,0.4,0.3,0.4,0.6c0.2,0.9,0.9,1.3,1.2,1.9
			c0.8,1.7,2,3.2,2.4,5c0.2,0.8,0.1,1.4-0.2,2.2c-0.2,0.6-0.5,1.3-0.8,1.9c-0.5-0.5-0.9-0.9-1.1-1.3c-0.5-0.9-1.3-1.5-2-2.2
			c-1-1-1.9-2-2.4-3.4c-0.3-0.8-0.3-1.5-0.1-2.2c0.3-0.9,1-1.7,1.8-2.3C61.7,12.7,62,12.7,62.2,12.7z M66.5,15.3
			c0-0.1,0.1-0.2,0.1-0.3c0.5-1.2,1.1-2.2,2-3.1c1.2-1.3,2.3-2.7,3.4-4.1C72.4,7.2,72.7,7,73.4,7c1.4,0,2.9,0,4.3,0.1
			c0.9,0.1,1.6-0.1,2.4-0.5l0,0c0.1-0.1,0.3-0.1,0.4-0.2c-0.1,0.2-0.2,0.3-0.3,0.5c-0.3,0.4-0.7,0.7-0.9,1.1c-0.1,0.3-0.1,0.5,0,0.9
			c-0.1,0.1-0.1,0.3-0.1,0.4c-0.5,1.6,0,3.2-0.1,4.7c-0.1,1.7,0.5,3.2,2.1,4.2c0.2,0.1,0.3,0.2,0.4,0.4c0.1,0.1,0.1,0.2,0,0.4
			c0,0.1-0.2,0.3-0.3,0.5c-1.6,1.8-3.2,3.5-4.8,5.3c-0.6,0.6-1.2,1-2.1,1.1c-3.2,0.4-5.5,2.1-7.1,4.8l-0.1,0l0,0
			c0,0,0.1,0.1,0.1,0.2c-0.1,0.2,0.1,0.5,0,0.7c-0.1,0.4-0.5,0.6-0.6,0.9c0.2-0.6,0.3-1,0.5-1.4l0,0l-0.1,0c0.1-0.9,0.4-1.9,0.2-2.7
			c-0.5-1.6,0-2.9,0.4-4.4c0.5-1.8,0.3-3.7-0.7-5.4C66.2,17.4,66.1,16.4,66.5,15.3z M64.6,37.2C64.6,37.1,64.6,37.1,64.6,37.2
			L64.5,37c0.1-0.1,0.1-0.2,0.2-0.3c0.1,0.1,0.1,0.1,0.2,0.2C64.8,37,64.7,37.1,64.6,37.2z M66.1,40.3c0.4,0,0.8,0,1.4-0.1
			c-0.4,0.3-0.8,0.4-1.1,0.3C66.3,40.5,66.2,40.4,66.1,40.3z M65.3,40.4L65.3,40.4L65.3,40.4L65.3,40.4L65.3,40.4z M67.1,36.3
			c0.1-0.6,0.3-1.3,0.5-1.8c1-3,2.9-5.2,6.1-6.3c0.1,0,0.3,0,0.4,0c-0.4,0.8-0.7,1.6-1.1,2.3c-0.1,0.1-0.1,0.3-0.2,0.4
			c-0.1,0.3-0.1,0.6,0.1,1c0.3,0.8,0.9,1.3,1.6,1.5c0.6,0.2,1.3,0.1,2-0.2c0.6-0.3,1.2-0.6,1.9-0.9c0.2,0.6,0.2,1,0.1,1.3
			c-0.1,0.2-0.2,0.4-0.5,0.5c-2.8,1.4-5.7,2.6-9,2.5C68.3,36.6,67.8,36.5,67.1,36.3z M74.6,32.3c-0.2-0.6-0.3-1.1-0.1-1.6
			c0.1-0.2,0.1-0.4,0.3-0.6c2.7-5.1,7-8.9,11.3-12.6c0.1-0.1,0.3-0.1,0.5-0.2c1,1,0.8,2.1,0.8,3.2c0.1,0.9-0.1,1.9-0.2,2.8
			c-0.1,0.4-0.1,0.8-0.3,1.1c-0.4,1.2-1.1,2.2-2.3,2.8c-1.1,0.6-2.4,1.2-3.5,1.8c-0.9,0.5-1.7,0.9-2.4,1.7
			C77.7,31.7,76.3,32.4,74.6,32.3z"/>
		<path display="inline" fill="#C95426" d="M59.7,37.5c0.5,0.1,1.6,0.8,1.8,1.5C60.8,39.1,59.3,38.8,59.7,37.5z"/>
		<path display="inline" fill="#C95426" d="M67.7,40.1c-0.1,0.8-1.5,1.7-3.8-0.5C64.4,39.6,67.3,39.7,67.7,40.1z"/>
		<path display="inline" fill="#C95426" d="M61.9,36.4c-0.2-0.2-0.4-0.4-0.6-0.6c-0.3-0.4-1-0.8-1.5-1.3c-0.2,0.9,0.1,2.3,0.7,2.5
			c0.2,0.2,0.4,0.4,0.6,0.6c0.1,0.6,1.1,0.1,1.7,0.1C62.5,37.3,62.1,36.6,61.9,36.4z"/>
		<path display="inline" fill="#AA4824" d="M64.6,37.2c-0.1-0.1-0.2-0.2-0.2-0.2c0.1-0.1,0.2-0.2,0.3-0.4c0.1,0.1,0.2,0.2,0.3,0.3
			C64.9,37.1,64.8,37.1,64.6,37.2z"/>
		<path display="inline" fill="#C95426" d="M67.1,38.1c-0.4,0-0.8,0-1.2,0.1c-0.6,0.1-1.3,0.1-1.9,0.2c-0.2,0-0.4,0-0.6,0
			c0.2,0.1,0.2,0.7,0.4,0.8c0.7,0,1.5,0,2.2,0c0.3,0,0.5-0.1,0.8-0.1c0.2-0.2,0.6-0.8,0.9-0.9C67.5,38,67.3,38.1,67.1,38.1z"/>
		<path display="inline" fill="#F8F8F8" d="M71.4,2c0.1,0,0.3,0,0.4,0c-0.1,0.1-0.2,0.2-0.2,0.4C71.5,2.2,71.5,2.1,71.4,2z"/>
		<path display="inline" fill="#8F8A8A" d="M74.1,28.2c-0.2,0-0.3,0-0.5,0C73.8,28.1,74,28.1,74.1,28.2z"/>
		<path display="inline" fill="#421F14" d="M65.3,40.6c0-0.1,0-0.1-0.1-0.2c0.1,0,0.1-0.1,0.2-0.1c0,0,0.1,0.1,0.1,0.1
			C65.4,40.5,65.4,40.5,65.3,40.6z"/>
	</g>
	<g>
		<path fill="#3498DB" d="M49.7,28.2c1,0.9,0.7,2,0.8,3c0.1,0.9-0.1,1.7-0.2,2.6c-0.2,1.6-1,2.9-2.4,3.7c-1.1,0.6-2.2,1.1-3.3,1.7
			c-0.8,0.4-1.5,0.9-2.2,1.6c-0.9,0.9-2.3,1.6-3.8,1.5c-0.3-0.7-0.3-1.4,0.2-2.1c2.5-4.8,6.5-8.3,10.5-11.7
			C49.3,28.3,49.5,28.2,49.7,28.2z"/>
		<path fill="#F9F9F9" d="M46.8,28.5c-2.4-2.3-3.4-4.8-2.8-7.8c0.3-1.6,1.2-2.7,2.7-3.3c0.7-0.3,1.3-0.5,2-0.8
			c1.5,1.8,2.2,3.8,2.3,6c0.1,0.9-0.3,1.7-1,2.4C49.1,26.1,48,27.2,46.8,28.5z"/>
		<path fill="#3498DB" d="M35.5,17.2c0.3-0.6,0.6-1.3,1-1.8c0.9-1.2,2.1-2,3.7-2.3c1.9-0.4,3.9-0.4,5.8-0.4c1.3,0,2.5,0.1,3.7-0.2
			c1.3-0.3,1.9,0.9,2.8,1.3c0.1,0,0.1,0.2,0.1,0.3c-0.1,0.6-0.1,1.2-0.2,1.8c-0.7-0.1-1.4-0.2-2.1-0.3c-1.7-0.2-3.3,0.6-4.9,1
			c-1.4,0.3-2.7,0.7-4.1,1c-1.2,0.2-2.4,0.1-3.5-0.3C36.5,16.9,36.5,17,35.5,17.2z"/>
		<path fill="#F9F8F8" d="M27.6,45.7c-1.3-0.5-0.9-1.2-0.7-1.9c-1.9-1.1-2.6-2.9-3.1-4.8c-0.5-2,0.1-3.7,0.8-5.5
			c0.4-1.1,1.6-1.2,2.7-0.4c1.1,0.8,1.8,2,2.1,3.3c0.3,1.1,0.3,2.3,0.4,3.4c0,0.3,0,0.6-0.2,0.8c-0.7,1.2-1.3,2.4-1.3,3.8
			C28.4,44.9,27.9,45.3,27.6,45.7z"/>
		<path fill="#F8F8F8" d="M35.8,14.4c-0.3,0.4-0.7,0.8-0.9,1.2c-0.2,0.5-0.4,1.3-0.2,1.5c0.6,0.6,0.4,1,0,1.5c-0.7,1-1.4,2-2.1,2.9
			c-1,1.3-2.1,2.7-3.2,4.1c-0.2-0.2-0.4-0.4-0.5-0.6c-2.4-4.9,0.4-9.3,4.9-10.7c0.6-0.2,1.2-0.2,1.8-0.3
			C35.7,14.2,35.8,14.3,35.8,14.4z"/>
		<path fill="#F8F8F8" d="M38.2,38.3c-0.3,0.7-0.7,1.5-1.1,2.2c-0.2,0.4-0.3,0.8-0.1,1.2c0.6,1.3,1.9,1.8,3.2,1.2
			c0.6-0.3,1.2-0.6,1.8-0.9c0.3,1,0.3,1.5-0.4,1.9c-2.6,1.3-5.3,2.4-8.4,2.3c-0.5,0-1.1-0.2-1.7-0.3c0.7-3.7,2.6-6.4,6.1-7.7
			C37.9,38.3,38,38.3,38.2,38.3z"/>
		<path fill="#3498DB" d="M29.5,50.5c-0.5,1.9-1.8,3.4-2.4,5.5c0.5-0.1,0.8-0.1,1.1-0.2c0.2-0.1,0.4-0.3,0.4-0.4
			c-0.3-1.1,0.4-1.8,0.9-2.7c0.2-0.3,0.2-0.6,0.4-0.9c0.1,0.1,0.2,0.2,0.3,0.3c0.1,0.1,0.2,0.3,0.1,0.5c-0.5,1.9-0.1,4-1.3,5.8
			c-0.8,0.4-1.1-0.7-1.9-0.8c-0.1,0.6-0.1,1,0.4,1.5c1.8,1.6,2,3.7,1.2,5.9c-0.2,0.6-0.3,1.4-0.8,2c-1.2-1.9-1.5-4-2-6.1
			c-0.2-0.9-0.3-1.8-0.4-2.8c0-0.3-0.1-0.9,0.1-1c0.9-0.3-0.1-0.6,0-1c0.1-0.3,0-0.8,0.1-1.1c0.1-0.4,0.4-0.8,0.7-1.1
			c0.9-1.2,1.7-2.3,2.6-3.5C29.3,50.3,29.4,50.4,29.5,50.5z"/>
		<path fill="#3498DB" d="M30,34.9c-0.4-0.5-0.9-0.9-1.1-1.3c-0.5-0.8-1.2-1.4-1.8-2c-0.9-0.9-1.8-1.9-2.2-3.1
			c-0.7-1.8,0.3-3.2,1.6-4.3c0.5-0.4,1-0.2,1.1,0.4c0.1,0.8,0.8,1.2,1.1,1.7c0.8,1.6,1.9,3,2.3,4.7C31.2,32.4,30.6,33.6,30,34.9z"/>
		<path fill="#3498DB" d="M23,49.7c0.8-0.2,1.3-1.6,2.5-0.3c-0.7,0.9-1.3,1.9-2.1,2.7c-0.4,0.5-1,0.6-1.7,0.3
			c-1.2-0.5-2.5-0.7-3.6-1.5c-0.9-0.6-2.1-0.8-3.5-1.2c1.4-0.4,2.6-0.7,3.7-1.1c1.2-0.5,2.3-0.1,3.3,0C22.1,48.7,22.6,49.4,23,49.7z
			"/>
		<path d="M51.2,28.5c-0.3-0.6-0.3-1.1-0.2-1.5c0.1-0.3,0.4-0.6,0.8-0.9c0.4-0.3,0.6-0.6,0.7-0.9c0.1-0.3,0.1-0.7,0.1-1.1
			c-0.2-1.4-0.2-2.8-0.3-4.4c0.1,0.1,0.2,0.1,0.3,0.1c0.1,0,0.2,0.1,0.2,0.1c0,0.1,0,0.2,0,0.3c0,0.1,0,0.2,0,0.3
			c0.2,0.3,0.4,0.4,0.6,0.6l0.1,0l0-0.1c0.1-0.2,0.2-0.3,0.3-0.5c0-0.1,0-0.1,0-0.2c0-0.4-0.1-0.9-0.3-1.3c-0.3-0.6-0.3-1.1-0.1-1.7
			c0-0.1,0-0.1,0.1-0.2c0.1-0.1,0.1-0.3,0.2-0.5c0-0.1,0.1-0.2,0.1-0.4c0.2-1.1,0.1-2.2-0.2-3.1c-0.4-0.9-1-1.7-2.2-2
			c-0.3-0.1-0.7-0.2-1.1-0.2c-1.5-0.1-3-0.2-4.5,0c-2.1,0.3-4.2,0.9-6.3,1.4c-0.7,0.2-1.6,0.3-2.2,0.1c-1.7-0.4-3.2-0.2-4.7,0.5
			c-2.4,1.1-4.2,2.7-5,5.1c-0.1,0.3-0.2,0.6-0.2,1c-0.2,1.1-0.1,2.3-0.2,3.5c-1.8,0.3-3,1.5-3.9,3.2c-0.1,0.2-0.2,0.5-0.3,0.7
			c-0.2,0.8-0.2,1.5,0.5,2.2c0.6,0.6,0.7,1.2,0.4,1.9l0,0.1c0,0.1-0.1,0.2-0.1,0.3c-0.1,0.4-0.2,0.7-0.3,1.1
			c-0.1,0.2-0.2,0.4-0.2,0.7c-0.1,0.3-0.2,0.6-0.3,0.9c-0.7,2.1-0.7,4.2-0.5,6.4c0.1,1,0.3,2,1.1,2.8c0.6,0.6,0.7,1.1,0.5,1.9
			c0,0,0,0.1,0,0.1c-0.1,0.2-0.1,0.4-0.2,0.6c-0.2,0.8-0.4,1.6-0.7,2.5c-0.4-0.2-0.8-0.3-1.2-0.5c-0.9-0.3-1.8-0.4-2.7-0.2
			c-1.9,0.5-3.8,1.1-5.7,1.7c-0.4,0.1-0.7,0.4-0.8,0.7c-0.1,0.4,0.1,0.8,0.6,1.1c0.5,0.4,1.1,0.7,1.7,0.9c0.1,0,0.1,0,0.2,0.1
			c0.2,0,0.4,0.1,0.6,0.2c1,0.3,1.9,0.8,2.9,1.1c0.1,0,0.2,0.1,0.3,0.1c1.2,0.3,2.5,0.5,3.7,0.7c0.4,0.1,0.7,0,1-0.1
			c0.3-0.2,0.5-0.4,0.7-0.9c0.5-1,1.2-2,1.8-3c0.1-0.2,0.2-0.3,0.3-0.3c0.1,0,0.2,0,0.4,0c0.1,0,0.2,0.1,0.4,0.1
			c0.2,0.1,0.2,0.1,0.3,0.2c0,0.1,0,0.2,0,0.3c0,0.1-0.1,0.1-0.1,0.2c-0.2,0.4-0.4,0.8-0.7,1.1c-0.6,0.8-1.3,1.6-1.9,2.5
			c-0.4,0.5-0.7,1-0.9,1.6c-0.2,0.7-0.2,1.4,0.2,2.2c0.1,0.3,0.1,0.6,0.2,1c0.9,3.3,1.8,6.6,2.8,9.9c0.1,0.2,0.1,0.5,0.2,0.7
			c0.1,0.2,0.3,0.4,0.5,0.5c0.1,0,0.3,0,0.4,0c0.4-0.1,0.5-0.3,0.6-0.6c0.1-0.3,0.1-0.7,0.1-1c0.1-0.8,0-1.6,0.1-2.3
			c0.4-2.2,1.2-4.3,1.1-6.5c0,0,0-0.1,0-0.1c0-0.1,0.1-0.2,0.1-0.3c0.2-0.4,0.4-0.8,0.5-1.3c0.3-0.8,0.4-1.7,0.3-2.6
			c0-0.5,0.2-1.1,0.1-1.6c0-0.6,0-1.1,0.2-1.6c0.3-1.1,1.1-1.7,2.5-2c0.2,0,0.3-0.2,0.5-0.2c0.6-0.2,1-0.5,1.1-1
			c0.1-0.2,0.1-0.5,0.1-0.8c0-0.2,0-0.4,0-0.5c0.1-0.4,0.5-0.6,1.1-0.7c1.2-0.2,2.3-0.8,3.5-1.1c1.6-0.4,2.5-1.3,3-2.7
			c0.1-0.2,0.1-0.5,0.2-0.8c0-0.1,0-0.2,0.1-0.3c0.2-0.5,0.6-0.9,1.1-1.2c1.3-0.7,2.7-1.3,4-2c1.3-0.7,2.1-1.8,2.6-3.1
			c0.1-0.2,0.2-0.5,0.3-0.7C52.3,32.8,52.1,30.6,51.2,28.5z M28.5,65.7c-0.1,0.3-0.2,0.6-0.5,0.9c-1.1-1.9-1.4-4-1.9-6
			c-0.2-0.9-0.3-1.8-0.4-2.7c0-0.3,0-0.7,0-0.9l0,0l0,0c0.2-0.1,0.4-0.2,0.4-0.3c0-0.1,0-0.2,0-0.2c-0.1-0.1-0.2-0.2-0.2-0.3
			c-0.1-0.1,0-0.1,0.1-0.2c0.1-0.4,0.1-0.7,0.2-1.1l0,0c0.1-0.4,0.2-0.8,0.5-1.1c0.9-1.2,1.6-2.3,2.5-3.5c0.1,0.1,0.2,0.1,0.3,0.2
			c0,0.1-0.1,0.2-0.1,0.3c-0.5,1.6-1.6,3-2.2,4.8c0,0.1-0.1,0.2-0.1,0.3l0,0.1l0.1,0c0.5-0.1,0.8-0.1,1.1-0.2c0.1,0,0.2-0.1,0.3-0.2
			c0.1-0.1,0.2-0.2,0.2-0.2l0-0.1c-0.1-0.4-0.1-0.7,0-1.1c0.2-0.6,0.6-1,0.9-1.6c0.1-0.3,0.2-0.6,0.3-0.9c0.1,0.1,0.2,0.2,0.2,0.2
			c0.1,0.2,0.1,0.3,0.1,0.4c-0.4,1.5-0.2,3.1-0.7,4.6c-0.1,0.4-0.3,0.8-0.6,1.2c-0.2,0.1-0.3,0.1-0.4,0c-0.4-0.1-0.7-0.6-1.2-0.8
			c-0.1,0-0.2,0-0.2,0l-0.1,0l0,0.1c-0.1,0.6,0,1.1,0.5,1.6c1.7,1.5,2,3.4,1.3,5.4c0,0.1-0.1,0.3-0.1,0.4c0,0.1,0,0.1-0.1,0.2
			C28.7,65.2,28.6,65.5,28.5,65.7z M28.4,47.5c0.1,0,0.2-0.2,0.3-0.2h0h0c0.6,0,1,0.1,1.6,0.1c0.4,0,1.3,0.4,1.3,0l0.4,0.1v0
			c1,0.1,0,0,0.1,0c-0.2,0.1-0.4,0.2-0.5,0.3c-0.2,0-0.5,0.1-0.8,0.1c-0.7,0-1.4-0.1-2.1-0.1C28.7,47.7,28.5,47.6,28.4,47.5z
			 M25,47.3c0.2,0.2,0.5,0.4,0.7,0.7c-0.1,0-0.3,0-0.4,0c-0.1,0-0.2-0.1-0.3-0.3C25.1,47.6,25,47.5,25,47.3z M23,49.8
			c0.3-0.1,0.6-0.4,0.9-0.6c0.3-0.2,0.6-0.4,0.9-0.2c0.2,0.1,0.4,0.2,0.6,0.5c-0.7,0.9-1.3,1.8-2.1,2.7c-0.4,0.4-0.9,0.6-1.4,0.4
			c-0.1,0-0.1,0-0.2-0.1c-1.2-0.5-2.5-0.7-3.6-1.5c-0.4-0.2-0.8-0.4-1.2-0.5c-0.6-0.2-1.4-0.4-2.1-0.6c1.3-0.4,2.5-0.6,3.5-1.1
			c1.1-0.5,2.2-0.1,3.3,0c0,0,0.1,0,0.1,0C22.2,48.9,22.6,49.4,23,49.8L23,49.8L23,49.8z M25.9,45.7L25.9,45.7
			c-0.3-0.1-0.5-0.1-0.6-0.3c-0.1-0.2-0.1-0.3-0.1-0.7c0.4,0.4,0.7,0.5,1,0.8l0.1-0.3h0c0.2,0,0.3,0.7,0.5,0.9
			c0.1,0.2,0.3,0.5,0.5,0.8c-0.2,0-0.4-0.1-0.6-0.1c-0.2-0.1-0.3-0.5-0.3-0.5h0l0,0.1C26.2,46.2,26,46,25.9,45.7L25.9,45.7z
			 M24.7,33.5c0.3-0.8,1-1,1.8-0.8c0.3,0.1,0.5,0.2,0.8,0.4c1.1,0.8,1.8,2,2.1,3.3c0.3,1.1,0.3,2.3,0.4,3.4c0,0.2,0,0.4-0.1,0.6
			c0,0.1,0,0.1-0.1,0.2c-0.4,0.7-0.8,1.4-1.1,2.2c-0.2,0.5-0.3,1.1-0.2,1.7c0,0.1,0,0.1,0,0.2c-0.1,0.3-0.5,0.6-0.7,0.9
			c-0.5-0.2-0.7-0.4-0.8-0.6c-0.1-0.2-0.1-0.5,0-0.7c0-0.2,0.1-0.3,0.2-0.5l0,0l0,0c-1.9-1.1-2.6-2.8-3.1-4.8
			c-0.4-1.3-0.2-2.6,0.2-3.8C24.3,34.6,24.5,34,24.7,33.5z M35.7,14.2c0.1,0,0.2,0,0.3,0c0,0.1-0.1,0.2-0.1,0.2
			c-0.3,0.4-0.7,0.7-0.9,1.2c0,0.1-0.1,0.2-0.1,0.3c-0.1,0.2-0.1,0.5-0.2,0.7c0,0.2,0,0.4,0.1,0.5c0.4,0.4,0.4,0.6,0.3,0.9
			c-0.1,0.2-0.2,0.3-0.3,0.5c-0.7,1-1.4,2-2.1,2.9c-1,1.3-2.1,2.6-3.2,4c-0.2-0.2-0.3-0.4-0.4-0.6c-1-2-1.1-3.9-0.6-5.6
			c0.8-2.4,2.8-4.2,5.4-5C34.4,14.3,35.1,14.3,35.7,14.2z M52.4,13.8C52.5,13.8,52.5,13.9,52.4,13.8c0,0.1,0,0.2,0,0.2
			c-0.1,0.6-0.1,1.1-0.2,1.8c-0.7-0.1-1.4-0.2-2-0.3c-1.8-0.2-3.3,0.6-5,1c-1.4,0.3-2.7,0.7-4.1,1c-1.1,0.2-2.2,0.2-3.3-0.2
			c-0.1,0-0.2-0.1-0.2-0.1c-0.2-0.1-0.4-0.1-0.5-0.2c-0.6-0.2-0.8-0.2-1.6,0c0.3-0.6,0.5-1.2,0.9-1.7c0.9-1.2,2.1-2,3.6-2.3
			c1.9-0.4,3.9-0.4,5.8-0.4c1.3,0,2.5,0.1,3.7-0.2c0.3-0.1,0.6-0.1,0.9,0C51.3,12.8,51.7,13.5,52.4,13.8z M44.4,18
			C44.4,18,44.5,18,44.4,18C44.5,18,44.5,18,44.4,18C44.5,18,44.5,18,44.4,18z M50.1,25c-1,1.1-2.1,2.2-3.3,3.4
			c-2.4-2.3-3.3-4.7-2.7-7.7c0-0.2,0.1-0.4,0.1-0.6c0.4-1.3,1.3-2.2,2.6-2.7c0.6-0.3,1.3-0.5,2-0.7c1.5,1.8,2.1,3.8,2.3,5.9
			c0,0.4,0,0.7-0.1,1C50.8,24.1,50.5,24.6,50.1,25z M27.1,24.1c0.2,0.1,0.3,0.2,0.4,0.6c0.1,0.8,0.8,1.2,1.1,1.8
			c0.8,1.6,1.9,3,2.3,4.6c0.2,0.7,0.1,1.3-0.1,2c-0.2,0.6-0.5,1.2-0.7,1.8c-0.4-0.5-0.8-0.8-1.1-1.2c-0.5-0.9-1.2-1.4-1.9-2
			c-0.9-0.9-1.7-1.9-2.2-3.1c-0.3-0.7-0.3-1.4-0.1-2c0.3-0.8,0.9-1.6,1.7-2.2C26.7,24,26.9,24,27.1,24.1z M31.1,26.5
			c0-0.1,0.1-0.2,0.1-0.3c0.4-1.1,1-2,1.8-2.8c1.1-1.2,2.2-2.5,3.1-3.8c0.4-0.6,0.8-0.8,1.4-0.8c1.3,0,2.6,0,3.9,0.1
			c0.8,0.1,1.5-0.1,2.2-0.4l0,0c0.1-0.1,0.3-0.1,0.4-0.2c-0.1,0.2-0.2,0.3-0.3,0.5c-0.3,0.3-0.7,0.6-0.8,1.1c-0.1,0.2-0.1,0.5,0,0.8
			c0,0.1-0.1,0.2-0.1,0.3c-0.5,1.5,0,2.9-0.1,4.4c-0.1,1.6,0.5,2.9,1.9,3.8c0.2,0.1,0.3,0.2,0.4,0.3c0.1,0.1,0.1,0.2,0,0.3
			c0,0.1-0.1,0.3-0.3,0.5c-1.5,1.6-3,3.3-4.4,4.9c-0.5,0.6-1.1,1-1.9,1.1c-2.9,0.4-5.1,2-6.6,4.4l-0.1,0l0,0c0,0,0.1,0.1,0,0.2
			c-0.1,0.2,0.1,0.4,0,0.6c-0.1,0.3-0.5,0.6-0.6,0.9c0.2-0.5,0.3-0.9,0.4-1.3l0,0l-0.1,0c0.1-0.8,0.4-1.7,0.2-2.5
			c-0.4-1.5,0-2.7,0.4-4.1c0.4-1.7,0.3-3.4-0.7-5C30.9,28.4,30.8,27.4,31.1,26.5z M29.4,46.7C29.4,46.6,29.3,46.6,29.4,46.7
			l-0.1-0.1c0.1-0.1,0.1-0.2,0.2-0.2c0.1,0.1,0.1,0.1,0.2,0.2C29.6,46.5,29.5,46.6,29.4,46.7z M30.7,49.6c0.4,0,0.8,0,1.3-0.1
			c-0.4,0.3-0.7,0.4-1,0.3C31,49.8,30.9,49.7,30.7,49.6z M30,49.7L30,49.7L30,49.7L30,49.7L30,49.7z M31.7,45.9
			c0.1-0.6,0.2-1.2,0.4-1.7c0.9-2.8,2.7-4.8,5.6-5.9c0.1,0,0.2,0,0.4,0c-0.3,0.7-0.6,1.4-1,2.1c-0.1,0.1-0.1,0.2-0.2,0.4
			c-0.1,0.3-0.1,0.6,0.1,0.9c0.3,0.7,0.8,1.2,1.4,1.4c0.6,0.2,1.2,0.1,1.8-0.2c0.6-0.3,1.1-0.5,1.7-0.8c0.2,0.6,0.2,0.9,0.1,1.2
			c-0.1,0.2-0.2,0.4-0.5,0.5c-2.6,1.3-5.3,2.4-8.3,2.3C32.8,46.2,32.3,46,31.7,45.9z M38.6,42.1c-0.2-0.5-0.2-1-0.1-1.5
			c0.1-0.2,0.1-0.4,0.2-0.5c2.5-4.8,6.4-8.3,10.5-11.7c0.1-0.1,0.3-0.1,0.5-0.2c0.9,0.9,0.7,2,0.8,3c0.1,0.8-0.1,1.7-0.2,2.6
			c0,0.4-0.1,0.7-0.2,1.1c-0.4,1.1-1,2-2.1,2.6c-1.1,0.6-2.2,1.1-3.3,1.7c-0.8,0.4-1.6,0.9-2.3,1.6C41.5,41.6,40.2,42.2,38.6,42.1z"
			/>
		<path fill="#C95426" d="M24.8,47c0.5,0.1,1.5,0.7,1.7,1.4C25.8,48.5,24.5,48.2,24.8,47z"/>
		<path fill="#C95426" d="M32.3,49.4c-0.1,0.8-1.4,1.6-3.6-0.5C29.2,48.9,31.8,49,32.3,49.4z"/>
		<path fill="#C95426" d="M26.9,46c-0.2-0.2-0.4-0.3-0.5-0.5c-0.3-0.3-0.9-0.7-1.4-1.2c-0.2,0.8,0.1,2.1,0.6,2.3
			c0.2,0.2,0.4,0.4,0.5,0.5c0.1,0.5,1,0.1,1.6,0.1C27.4,46.8,27,46.1,26.9,46z"/>
		<path fill="#AA4824" d="M29.4,46.7c-0.1-0.1-0.2-0.2-0.2-0.2c0.1-0.1,0.2-0.2,0.3-0.3c0.1,0.1,0.2,0.2,0.3,0.3
			C29.6,46.6,29.5,46.6,29.4,46.7z"/>
		<path fill="#C95426" d="M31.6,47.5c-0.4,0-0.7,0-1.1,0.1c-0.6,0-1.2,0.1-1.8,0.1c-0.2,0-0.4,0-0.6,0c0.2,0.1,0.2,0.7,0.4,0.8
			c0.7,0,1.4,0,2.1,0c0.2,0,0.5-0.1,0.7-0.1c0.2-0.1,0.6-0.7,0.8-0.9C32,47.5,31.8,47.5,31.6,47.5z"/>
		<path fill="#F8F8F8" d="M35.6,14.1c0.1,0,0.3,0,0.4,0c-0.1,0.1-0.1,0.2-0.2,0.3C35.8,14.3,35.7,14.2,35.6,14.1z"/>
		<path fill="#8F8A8A" d="M38.2,38.3c-0.2,0-0.3,0-0.5,0C37.9,38.3,38,38.3,38.2,38.3z"/>
		<path fill="#421F14" d="M30,49.8c0,0,0-0.1-0.1-0.1c0,0,0.1-0.1,0.1-0.1c0,0,0,0.1,0.1,0.1C30.1,49.8,30.1,49.8,30,49.8z"/>
	</g>
	<g>
		<path d="M44.2,14.8c1.1,0.7,3.5,1.8,3.5,1.8l0.4-0.8c0,0-0.6-0.3-1.3-0.7c-0.7-0.4-1.6-0.8-2.1-1.1L44.2,14.8L44.2,14.8z"/>
	</g>
	<path fill="#C0392B" d="M29,15.7c4.5,1.2,6.3,5.6,6.3,5.6L43,19l1.1-0.8l1.1-1c0,0-0.3-0.8-1.6-2.4s-2.5-2.7-2.5-2.7l-8.3-1.5
		L29,15.7z"/>
	<g>
		<path fill="#4C1212" d="M36.9,21.8c0,0-0.1-0.8-0.5-1.9c-0.4-1-1-2.3-2.1-3.3c-1.2-1.1-2.7-1.7-3.8-2.1c-1.2-0.4-2-0.5-2-0.5
			l-0.2,1.8l0,0c0.1,0,0.9,0.1,1.9,0.4c1,0.3,2.1,0.8,2.9,1.6c0.7,0.6,1.3,1.7,1.6,2.5c0.2,0.4,0.3,0.8,0.3,1.1
			c0,0.1,0.1,0.2,0.1,0.3l0,0.1l0,0L36.9,21.8L36.9,21.8z"/>
	</g>
	<g>
		<path fill="#4C1212" d="M40.4,11.4c0,0,0.1,0.1,0.3,0.3c0.6,0.6,2,2,2.6,2.7c0.4,0.5,0.9,1.2,1.2,1.7c0.2,0.3,0.3,0.5,0.4,0.7
			c0.1,0.1,0.1,0.2,0.1,0.2l0,0.1l1.6-0.9c0,0-0.3-0.5-0.6-1c-0.4-0.6-0.9-1.3-1.4-1.9c-0.5-0.6-1.2-1.4-1.9-2
			c-0.6-0.6-1.2-1.2-1.2-1.2L40.4,11.4L40.4,11.4z"/>
	</g>
</g>
</svg>
